<svg xmlns="http://www.w3.org/2000/svg" version="1.1" xmlns:xlink="http://www.w3.org/1999/xlink" xmlns:svgjs="http://svgjs.dev/svgjs" width="1000" height="1125" viewBox="0 0 1000 1125"><g transform="matrix(1,0,0,1,0,0)"><svg viewBox="0 0 320 360" data-background-color="#ffffff" preserveAspectRatio="xMidYMid meet" height="1125" width="1000" xmlns="http://www.w3.org/2000/svg" xmlns:xlink="http://www.w3.org/1999/xlink"><g id="tight-bounds" transform="matrix(1,0,0,1,0,0)"><svg viewBox="0 0 320 360" height="360" width="320"><g><svg></svg></g><g><svg viewBox="0 0 320 360" height="360" width="320"><g><path xmlns="http://www.w3.org/2000/svg" d="M320 187.111c0-45.764-20.238-86.866-52.203-114.908-28.043-31.964-69.145-52.203-114.908-52.203-84.302 0-152.889 68.587-152.889 152.889 0 45.753 20.231 86.848 52.185 114.891 28.043 31.975 69.152 52.22 114.926 52.22 0.299 0 0.59-0.021 0.889-0.021 0.299 0 0.59 0.021 0.889 0.021 83.456 0 151.111-67.655 151.111-151.111 0-0.299-0.021-0.59-0.021-0.889 0-0.299 0.021-0.59 0.021-0.889zM59.833 263.097c-15.093-21.255-24.071-47.143-24.256-75.097 0.48-72.928 59.492-131.943 132.423-132.423 27.954 0.185 53.845 9.163 75.097 24.256 24.366 23.627 39.57 56.64 39.57 93.056 0 71.559-58.219 129.778-129.778 129.778-36.416 0-69.429-15.204-93.056-39.57zM3.556 172.889c0-82.343 66.99-149.333 149.333-149.333 35.051 0 67.292 12.167 92.8 32.462-22.98-13.824-49.863-21.796-78.578-21.796-84.302 0-152.889 68.587-152.889 152.889 0 28.708 7.968 55.584 21.785 78.56-20.288-25.5-32.452-57.739-32.451-92.782zM167.111 318.667c-35.84 0-68.363-14.418-92.107-37.743 21.952 15.89 48.864 25.298 77.885 25.298 73.522 0 133.333-59.812 133.333-133.333 0-29.02-9.408-55.932-25.298-77.885 23.324 23.744 37.742 56.267 37.743 92.107 0 72.54-59.015 131.556-131.556 131.556z" fill="#046380" fill-rule="nonzero" stroke="none" stroke-width="1" stroke-linecap="butt" stroke-linejoin="miter" stroke-miterlimit="10" stroke-dasharray="" stroke-dashoffset="0" font-family="none" font-weight="none" font-size="none" text-anchor="none" style="mix-blend-mode: normal" data-fill-palette-color="tertiary"></path></g><g transform="matrix(1,0,0,1,70.79772481454742,99)"><svg viewBox="0 0 178.40455037090516 162" height="162" width="178.40455037090516"><g><svg viewBox="0 0 178.40455037090516 162" height="162" width="178.40455037090516"><g><svg viewBox="0 0 192 174.34532883457524" height="162" width="178.40455037090516"><g><svg viewBox="0 0 192 174.34532883457524" height="174.34532883457524" width="192"><g id="textblocktransform"><svg viewBox="0 0 192 174.34532883457524" height="174.34532883457524" width="192" id="textblock"><g><svg viewBox="0 0 192 116.89645651173493" height="116.89645651173493" width="192"><g transform="matrix(1,0,0,1,0,0)"><svg width="192" viewBox="4.880000114440918 -32.43000030517578 54.31999969482422 33.08000183105469" height="116.89645651173493" data-palette-color="#046380"><path d="M17.23 0L4.88 0 4.88-31.85 17.2-31.85Q20.78-31.85 23.14-30.7 25.5-29.55 26.68-27.65 27.85-25.75 27.85-23.48L27.85-23.48Q27.85-20.75 26.34-18.78 24.83-16.8 21.93-16.05L21.93-16.05Q23.83-15.73 25.28-14.69 26.73-13.65 27.56-12.13 28.4-10.6 28.4-8.75L28.4-8.75Q28.4-7.18 27.85-5.63 27.3-4.08 26.03-2.8 24.75-1.53 22.6-0.76 20.45 0 17.23 0L17.23 0ZM9.63-13.83L9.63-4.15 17.13-4.15Q20.38-4.15 21.84-5.5 23.3-6.85 23.3-9L23.3-9Q23.3-11.18 21.75-12.5 20.2-13.83 17.13-13.83L17.13-13.83 9.63-13.83ZM17.07-27.75L9.63-27.75 9.63-17.95 17.03-17.95Q19.8-17.95 21.39-19.28 22.98-20.6 22.98-22.95L22.98-22.95Q22.98-25.18 21.44-26.46 19.9-27.75 17.07-27.75L17.07-27.75ZM47.12 0.65L47.12 0.65Q43.87 0.65 41.15-0.51 38.42-1.68 36.76-3.98 35.1-6.28 35.02-9.73L35.02-9.73 39.67-9.73Q39.67-7.65 40.69-6.33 41.7-5 43.37-4.36 45.05-3.73 47.07-3.73L47.07-3.73Q49.12-3.73 50.7-4.35 52.27-4.98 53.14-6.03 54-7.08 54-8.43L54-8.43Q54-10.25 52.87-11.36 51.75-12.48 49.45-13.25L49.45-13.25 43.52-15.45Q39.7-16.88 37.7-18.74 35.7-20.6 35.7-23.93L35.7-23.93Q35.7-27.7 38.65-30.06 41.6-32.43 46.95-32.43L46.95-32.43Q52.02-32.43 54.84-30.08 57.65-27.73 58.05-23.68L58.05-23.68 53.37-23.68Q53.02-25.73 51.46-26.93 49.9-28.13 46.95-28.13L46.95-28.13Q44.1-28.13 42.5-26.89 40.9-25.65 40.9-23.78L40.9-23.78Q40.9-22.23 41.91-21.3 42.92-20.38 45.07-19.63L45.07-19.63 51.82-17.15Q55.3-15.93 57.25-13.85 59.2-11.78 59.2-8.58L59.2-8.58Q59.2-5.88 57.8-3.8 56.4-1.73 53.7-0.54 51 0.65 47.12 0.65Z" opacity="1" transform="matrix(1,0,0,1,0,0)" fill="#046380" class="undefined-text-0" data-fill-palette-color="primary" id="text-0"></path></svg></g></svg></g><g transform="matrix(1,0,0,1,0,144.49290437919927)"><svg viewBox="0 0 192 29.852424455375964" height="29.852424455375964" width="192"><g transform="matrix(1,0,0,1,0,0)"><svg width="192" viewBox="1.9500000476837158 -33.5 284.5699768066406 44.25" height="29.852424455375964" data-palette-color="#046380"><path d="M19.85-31.7L19.85-31.7Q16.15-31.7 13.43-30.38 10.7-29.05 8.9-26.93 7.1-24.8 6.23-22.15 5.35-19.5 5.35-16.9L5.35-16.9Q5.35-13.95 6.5-11.13 7.65-8.3 9.68-6.13 11.7-3.95 14.4-2.63 17.1-1.3 20.25-1.3L20.25-1.3Q21.15-1.3 22.38-1.5 23.6-1.7 24.8-2.27 26-2.85 27.03-3.9 28.05-4.95 28.6-6.65L28.6-6.65 29.1-6.65 29.1-1.1Q28.35-1.1 27.53-0.9 26.7-0.7 25.7-0.45L25.7-0.45Q24.4-0.1 22.83 0.2 21.25 0.5 19.5 0.5L19.5 0.5Q15.15 0.5 11.85-1 8.55-2.5 6.35-4.9 4.15-7.3 3.05-10.33 1.95-13.35 1.95-16.45L1.95-16.45Q1.95-19.55 3.05-22.6 4.15-25.65 6.4-28.08 8.65-30.5 12.05-32 15.45-33.5 20.05-33.5L20.05-33.5Q21.7-33.5 23.03-33.2 24.35-32.9 25.4-32.6L25.4-32.6Q26.15-32.35 26.78-32.23 27.4-32.1 28-32.1L28-32.1 28-26.55 27.5-26.55Q27.2-28.1 26.4-29.13 25.6-30.15 24.53-30.7 23.45-31.25 22.23-31.48 21-31.7 19.85-31.7ZM43.9 0.35L43.9 0.35Q41.4 0.35 39.4-0.48 37.4-1.3 35.97-2.73 34.55-4.15 33.77-6.1 33-8.05 33-10.35L33-10.35Q33-12.8 33.85-14.83 34.7-16.85 36.2-18.3 37.7-19.75 39.75-20.55 41.8-21.35 44.2-21.35L44.2-21.35Q46.6-21.35 48.6-20.58 50.6-19.8 52.05-18.4 53.5-17 54.3-15.08 55.1-13.15 55.1-10.85L55.1-10.85Q55.1-8.7 54.37-6.68 53.65-4.65 52.22-3.1 50.8-1.55 48.72-0.6 46.65 0.35 43.9 0.35ZM43.6-19.7L43.6-19.7Q41.8-19.6 40.42-18.82 39.05-18.05 38.12-16.82 37.2-15.6 36.72-14.05 36.25-12.5 36.25-10.9L36.25-10.9Q36.25-9.05 36.82-7.33 37.4-5.6 38.47-4.25 39.55-2.9 41.05-2.1 42.55-1.3 44.4-1.3L44.4-1.3Q46.25-1.3 47.67-2.1 49.1-2.9 50.05-4.17 51-5.45 51.47-7.05 51.95-8.65 51.95-10.25L51.95-10.25Q51.95-11.9 51.45-13.58 50.95-15.25 49.9-16.63 48.85-18 47.27-18.85 45.7-19.7 43.6-19.7ZM80.34 0L75.45 0 75.45-2.2Q74.59-1.25 73.17-0.45 71.75 0.35 69.59 0.35L69.59 0.35Q66.95 0.35 64.97-0.58 63-1.5 61.7-3 60.4-4.5 59.77-6.43 59.15-8.35 59.15-10.4L59.15-10.4Q59.15-12.4 59.8-14.38 60.45-16.35 61.75-17.9 63.05-19.45 65-20.4 66.95-21.35 69.5-21.35L69.5-21.35Q71.2-21.35 72.84-20.73 74.5-20.1 75.45-19.1L75.45-19.1 75.45-28.85Q75.45-29.7 75.2-30.45 74.95-31.2 73.75-31.25L73.75-31.25 73.75-31.75 78.75-33.3 78.75-3.25Q78.75-2.85 78.84-2.38 78.95-1.9 79.15-1.5 79.34-1.1 79.65-0.8 79.95-0.5 80.34-0.5L80.34-0.5 80.34 0ZM69.95-1.3L69.95-1.3Q71-1.3 72-1.73 73-2.15 73.75-2.88 74.5-3.6 74.97-4.58 75.45-5.55 75.45-6.7L75.45-6.7 75.45-13.55Q75.45-14.95 74.84-16.07 74.25-17.2 73.34-18 72.45-18.8 71.37-19.23 70.3-19.65 69.3-19.65L69.3-19.65Q67.65-19.65 66.34-18.88 65.05-18.1 64.14-16.88 63.25-15.65 62.8-14.13 62.34-12.6 62.34-11.1L62.34-11.1Q62.34-9.35 62.84-7.63 63.34-5.9 64.32-4.53 65.3-3.15 66.7-2.25 68.09-1.35 69.95-1.3ZM105.29-10.1L87.94-10.1Q88.14-8.35 88.79-6.78 89.44-5.2 90.52-4 91.59-2.8 93.14-2.08 94.69-1.35 96.74-1.35L96.74-1.35Q97.84-1.35 99.07-1.68 100.29-2 101.34-2.6 102.39-3.2 103.22-4.08 104.04-4.95 104.34-6.05L104.34-6.05 104.79-6.05 104.79-2.3Q104.49-2.3 104.12-2.1 103.74-1.9 103.24-1.6L103.24-1.6Q102.24-1 100.54-0.33 98.84 0.35 96.04 0.35L96.04 0.35Q93.79 0.35 91.77-0.3 89.74-0.95 88.19-2.3 86.64-3.65 85.72-5.75 84.79-7.85 84.79-10.75L84.79-10.75Q84.79-12.6 85.42-14.5 86.04-16.4 87.32-17.93 88.59-19.45 90.59-20.4 92.59-21.35 95.39-21.35L95.39-21.35Q97.89-21.35 99.77-20.5 101.64-19.65 102.87-18.15 104.09-16.65 104.69-14.6 105.29-12.55 105.29-10.1L105.29-10.1ZM95.19-19.7L95.19-19.7Q93.44-19.7 92.17-19 90.89-18.3 89.99-17.2 89.09-16.1 88.59-14.7 88.09-13.3 87.94-11.9L87.94-11.9 102.19-11.9Q102.14-13.35 101.67-14.75 101.19-16.15 100.34-17.25 99.49-18.35 98.19-19.03 96.89-19.7 95.19-19.7ZM140.74-18.3L130.44 7.15Q129.74 9.25 128.66 10 127.59 10.75 126.44 10.75L126.44 10.75Q125.69 10.75 125.11 10.55 124.54 10.35 124.11 10.08 123.69 9.8 123.44 9.55 123.19 9.3 123.14 9.15L123.14 9.15 124.79 5.1Q125.04 6 125.29 6.45L125.29 6.45Q125.54 6.95 125.99 7.35 126.44 7.75 127.09 7.75L127.09 7.75Q128.29 7.75 128.99 6L128.99 6 131.44-0.15 123.39-18.35Q123.14-18.95 122.56-19.73 121.99-20.5 120.99-20.5L120.99-20.5 120.99-21 127.59-21 127.59-20.5Q127.39-20.5 127.09-20.15 126.79-19.8 126.79-19.25L126.79-19.25Q126.79-18.8 126.99-18.45L126.99-18.45 133.14-4.3 139.04-18.75Q139.19-19.1 139.19-19.4L139.19-19.4Q139.19-19.9 138.86-20.2 138.54-20.5 138.19-20.5L138.19-20.5 138.19-21 143.04-21 143.04-20.5Q142.24-20.5 141.66-19.83 141.09-19.15 140.74-18.3L140.74-18.3ZM156.64 0.35L156.64 0.35Q154.14 0.35 152.14-0.48 150.14-1.3 148.71-2.73 147.29-4.15 146.51-6.1 145.74-8.05 145.74-10.35L145.74-10.35Q145.74-12.8 146.59-14.83 147.44-16.85 148.94-18.3 150.44-19.75 152.49-20.55 154.54-21.35 156.94-21.35L156.94-21.35Q159.34-21.35 161.34-20.58 163.34-19.8 164.79-18.4 166.24-17 167.04-15.08 167.84-13.15 167.84-10.85L167.84-10.85Q167.84-8.7 167.11-6.68 166.39-4.65 164.96-3.1 163.54-1.55 161.46-0.6 159.39 0.35 156.64 0.35ZM156.34-19.7L156.34-19.7Q154.54-19.6 153.16-18.82 151.79-18.05 150.86-16.82 149.94-15.6 149.46-14.05 148.99-12.5 148.99-10.9L148.99-10.9Q148.99-9.05 149.56-7.33 150.14-5.6 151.21-4.25 152.29-2.9 153.79-2.1 155.29-1.3 157.14-1.3L157.14-1.3Q158.99-1.3 160.41-2.1 161.84-2.9 162.79-4.17 163.74-5.45 164.21-7.05 164.69-8.65 164.69-10.25L164.69-10.25Q164.69-11.9 164.19-13.58 163.69-15.25 162.64-16.63 161.59-18 160.01-18.85 158.44-19.7 156.34-19.7ZM192.08-21.55L192.08-3.25Q192.08-2.9 192.18-2.43 192.28-1.95 192.46-1.53 192.63-1.1 192.93-0.8 193.23-0.5 193.63-0.5L193.63-0.5 193.63 0 188.78 0 188.78-2.75Q188.03-1.65 186.58-0.6 185.13 0.45 182.83 0.45L182.83 0.45Q179.93 0.45 178.23-0.55 176.53-1.55 175.63-3.1 174.73-4.65 174.48-6.48 174.23-8.3 174.23-9.9L174.23-9.9 174.23-17.05Q174.23-17.5 174.21-17.93 174.18-18.35 174.01-18.7 173.83-19.05 173.48-19.28 173.13-19.5 172.48-19.5L172.48-19.5 172.48-19.95 177.53-21.55 177.53-8.8Q177.53-5 179.18-3.2 180.83-1.4 183.23-1.4L183.23-1.4Q184.53-1.4 185.56-1.98 186.58-2.55 187.31-3.35 188.03-4.15 188.41-5 188.78-5.85 188.78-6.4L188.78-6.4 188.78-17.05Q188.78-17.5 188.76-17.93 188.73-18.35 188.56-18.7 188.38-19.05 188.03-19.28 187.68-19.5 187.03-19.5L187.03-19.5 187.03-19.95 192.08-21.55ZM212.18-20.4L210.68-17.35Q210.08-18.35 209.43-18.6 208.78-18.85 207.93-18.85L207.93-18.85Q207.38-18.85 206.76-18.6 206.13-18.35 205.53-17.95 204.93-17.55 204.36-17.07 203.78-16.6 203.38-16.2L203.38-16.2 203.38-3.2Q203.38-2.8 203.48-2.35 203.58-1.9 203.81-1.48 204.03-1.05 204.31-0.78 204.58-0.5 204.98-0.5L204.98-0.5 204.98 0 198.48 0 198.48-0.5Q198.83-0.5 199.13-0.78 199.43-1.05 199.66-1.48 199.88-1.9 199.98-2.35 200.08-2.8 200.08-3.2L200.08-3.2 200.08-17.15Q200.08-17.85 199.63-18.55 199.18-19.25 198.33-19.45L198.33-19.45 198.33-19.85 203.38-21.35 203.38-18.35Q203.83-18.9 204.33-19.43 204.83-19.95 205.46-20.38 206.08-20.8 206.83-21.08 207.58-21.35 208.58-21.35L208.58-21.35Q209.28-21.35 210.38-21.05 211.48-20.75 212.18-20.4L212.18-20.4ZM235.08 0L228.53 0 228.53-0.5Q228.93-0.5 229.23-0.8 229.53-1.1 229.75-1.5 229.98-1.9 230.08-2.38 230.18-2.85 230.18-3.25L230.18-3.25 230.18-28.85Q230.18-29.7 229.93-30.45 229.68-31.2 228.43-31.25L228.43-31.25 228.43-31.75 233.48-33.3 233.48-3.25Q233.48-2.85 233.58-2.38 233.68-1.9 233.9-1.5 234.13-1.1 234.4-0.8 234.68-0.5 235.08-0.5L235.08-0.5 235.08 0ZM247.07 0L240.57 0 240.57-0.5Q240.97-0.5 241.27-0.8 241.57-1.1 241.77-1.5 241.97-1.9 242.07-2.38 242.17-2.85 242.17-3.25L242.17-3.25 242.17-17.1Q242.17-17.95 241.92-18.73 241.67-19.5 240.47-19.55L240.47-19.55 240.47-20 245.47-21.6 245.47-3.25Q245.47-2.85 245.57-2.38 245.67-1.9 245.87-1.5 246.07-1.1 246.37-0.8 246.67-0.5 247.07-0.5L247.07-0.5 247.07 0ZM240.82-26.4L240.82-26.4Q240.82-27.4 241.5-28.1 242.17-28.8 243.17-28.8L243.17-28.8Q244.17-28.8 244.87-28.1 245.57-27.4 245.57-26.4L245.57-26.4Q245.57-25.4 244.87-24.75 244.17-24.1 243.17-24.1L243.17-24.1Q242.17-24.1 241.5-24.75 240.82-25.4 240.82-26.4ZM262.72-19.3L257.07-19.3 257.07-3.25Q257.07-2.85 257.17-2.38 257.27-1.9 257.5-1.5 257.72-1.1 258-0.8 258.27-0.5 258.67-0.5L258.67-0.5 258.67 0 252.17 0 252.17-0.5Q252.52-0.5 252.82-0.8 253.12-1.1 253.35-1.5 253.57-1.9 253.67-2.38 253.77-2.85 253.77-3.25L253.77-3.25 253.77-19.3 251.27-19.3 251.27-21 253.77-21 253.77-25.05Q253.77-26.6 253.87-28.05 253.97-29.5 254.47-30.65 254.97-31.8 256-32.5 257.02-33.2 258.82-33.2L258.82-33.2Q259.82-33.2 260.55-32.98 261.27-32.75 261.8-32.48 262.32-32.2 262.67-31.98 263.02-31.75 263.27-31.75L263.27-31.75 263.27-28.1 262.82-28.1Q262.57-29.55 261.52-30.53 260.47-31.5 259.42-31.5L259.42-31.5Q257.97-31.5 257.52-29.98 257.07-28.45 257.07-25.75L257.07-25.75 257.07-21 262.72-21 262.72-19.3ZM286.52-10.1L269.17-10.1Q269.37-8.35 270.02-6.78 270.67-5.2 271.74-4 272.82-2.8 274.37-2.08 275.92-1.35 277.97-1.35L277.97-1.35Q279.07-1.35 280.29-1.68 281.52-2 282.57-2.6 283.62-3.2 284.44-4.08 285.27-4.95 285.57-6.05L285.57-6.05 286.02-6.05 286.02-2.3Q285.72-2.3 285.34-2.1 284.97-1.9 284.47-1.6L284.47-1.6Q283.47-1 281.77-0.33 280.07 0.35 277.27 0.35L277.27 0.35Q275.02 0.35 272.99-0.3 270.97-0.95 269.42-2.3 267.87-3.65 266.94-5.75 266.02-7.85 266.02-10.75L266.02-10.75Q266.02-12.6 266.64-14.5 267.27-16.4 268.54-17.93 269.82-19.45 271.82-20.4 273.82-21.35 276.62-21.35L276.62-21.35Q279.12-21.35 280.99-20.5 282.87-19.65 284.09-18.15 285.32-16.65 285.92-14.6 286.52-12.55 286.52-10.1L286.52-10.1ZM276.42-19.7L276.42-19.7Q274.67-19.7 273.39-19 272.12-18.3 271.22-17.2 270.32-16.1 269.82-14.7 269.32-13.3 269.17-11.9L269.17-11.9 283.42-11.9Q283.37-13.35 282.89-14.75 282.42-16.15 281.57-17.25 280.72-18.35 279.42-19.03 278.12-19.7 276.42-19.7Z" opacity="1" transform="matrix(1,0,0,1,0,0)" fill="#046380" class="undefined-text-1" data-fill-palette-color="secondary" id="text-1"></path></svg></g></svg></g></svg></g></svg></g></svg></g></svg></g></svg></g></svg></g><defs></defs></svg><rect width="320" height="360" fill="none" stroke="none" visibility="hidden"></rect></g></svg></g></svg>