<svg id="Layer_1" data-name="Layer 1" xmlns="http://www.w3.org/2000/svg" viewBox="0 0 33 32"><defs><style>.cls-1{fill:#5ce1e6;}.cls-2{fill:#fff;}.cls-3{fill:#f5f5f5;}</style></defs><path class="cls-1" d="M16.5.7h0A15.3,15.3,0,0,1,31.8,16h0A15.3,15.3,0,0,1,16.5,31.3h0A15.3,15.3,0,0,1,1.2,16h0A15.3,15.3,0,0,1,16.5.7Z"/><path class="cls-2" d="M26.43,14.25l-.09.15.09-.15a4.54,4.54,0,0,0-2.25-.51H22.74a1.93,1.93,0,0,1-1.16-.29,1.16,1.16,0,0,1-.36-1V12.1a1.17,1.17,0,0,1,.93-1.31,4.45,4.45,0,0,1,1.15-.12c1.6,0,4,.17,4.05.17a.18.18,0,0,0,.18-.17h0V9.36A1.37,1.37,0,0,0,26.38,8,22.13,22.13,0,0,0,23,7.7h0c-5.13,0-4.86,3.75-4.86,4.26v.7c0,2.21.79,4.2,4.47,4.2H23.8a1.41,1.41,0,0,1,1,.3,1.07,1.07,0,0,1,.33.86v.53a1.1,1.1,0,0,1-.25.77c-.13.14-.48.52-2,.52l-1.53,0c-.53,0-1,0-1.54-.06-.83,0-1.33-.1-1.34-.1a.18.18,0,0,0-.18.18v1.33a1.36,1.36,0,0,0,1.14,1.34h0A22.55,22.55,0,0,0,23,22.8a9.83,9.83,0,0,0,2.68-.33c1.88-.54,2.53-2,2.53-4v-.83A3.76,3.76,0,0,0,26.43,14.25Zm.13.5a5.53,5.53,0,0,1-1.46-.58,3.54,3.54,0,0,1,1.15.38h0l.32.2Zm-8.11-2.09V12c0-.18,0-.35,0-.52l.21.05a1.16,1.16,0,0,0,.61.2h.22a3.7,3.7,0,0,1,1.21.13c.15.07-.1.35.14.39v.32a4.6,4.6,0,0,1-.91.09l-.63,0a5.73,5.73,0,0,0-.8.09h-.07ZM19.57,9a2,2,0,0,0,.73.27,1.47,1.47,0,0,0,.54.2c-.1-.08-.63-.55-.88-.74a4.31,4.31,0,0,1,1.26-.5,2.59,2.59,0,0,0,.52.19l-.3-.25a12.27,12.27,0,0,1,3.11-.06,1.74,1.74,0,0,1-1.11.36H23a3.25,3.25,0,0,0-.89.16h-.05a1.76,1.76,0,0,0,1.09.12c.19,0,.76-.17,1.05-.17a4.08,4.08,0,0,0,.87-.18A2,2,0,0,1,26,8.24c.24,0,.78.44,1.11.64a1,1,0,0,1,.12.48v1.09a16.34,16.34,0,0,0-1.75-.82,2.43,2.43,0,0,0-1.14-.17c-.59,0-.37.17-1.3.17-.19,0-.93.09-1.14.09a2,2,0,0,0-.69.09c.55.35.81.08,1.13.08.07,0,1-.17,1-.17h1.49c.81,0,.15.1.63.1a1.85,1.85,0,0,1,1.25.63c-1.7-.1-2.3-.13-2.92-.13a2.13,2.13,0,0,0-.56-.1,1.47,1.47,0,0,0-.55.12,2.92,2.92,0,0,0-.91.21h-.1l-.5,0a2.72,2.72,0,0,0-.75.11l0,0a3.64,3.64,0,0,0,.71.36,1.47,1.47,0,0,0-.24.56h-.12l-.55,0a5,5,0,0,0-.82.1.58.58,0,0,1-.26-.06,2,2,0,0,1-.65-.49,3.62,3.62,0,0,1,.26-1,2.32,2.32,0,0,0,.72.27,1.14,1.14,0,0,0,.57.19c-.2-.09-.19-.11-1.07-.88A2.52,2.52,0,0,1,19.57,9Zm.06,6.72a4.55,4.55,0,0,0,1,.12h.66a1.77,1.77,0,0,1,1.27.47s0,.09.13.19h-.16a4.93,4.93,0,0,1-2.94-.77Zm4.18.77h-.43c-1.56-.93-1.18-.6-3.27-.77-1-.29-.79-.61-1.3-1a3.79,3.79,0,0,1-.21-.65c1.51-.75,3.17.12,4.79,1a17.56,17.56,0,0,0,2.48,1,1.94,1.94,0,0,0,.93-.18,3.47,3.47,0,0,1-.71.1c-1.16,0-1.93-.93-4.49-2a3.72,3.72,0,0,0-1.48-.39c-.27,0-.53,0-.95,0l-.65,0a5.93,5.93,0,0,1-.06-.84h0c.13,0,.23,0,.32,0a5.93,5.93,0,0,0,1.38,0c.87-.26.93.7.93.7a2.21,2.21,0,0,0,1.62.62h1.59a8.46,8.46,0,0,1,1.09.42c.48.22.53.26.79.26s.39.15.52.1a2.77,2.77,0,0,1,.72.91,1.87,1.87,0,0,0-.66.11,5.05,5.05,0,0,1,.68-.08A4,4,0,0,1,27.83,17c-.16,0-.3,0-.62,0-.92,0-1.35.25-1.93.25h0a1.61,1.61,0,0,0-1.46-.7Zm4.05,1.13v.43a1.62,1.62,0,0,1-.49.08c-.16,0-.31,0-.68,0a4.74,4.74,0,0,0-1.24.16V18a2.31,2.31,0,0,0-.05-.46c.53-.12.79-.56,1.66-.56a5.92,5.92,0,0,1,.77.07,5.44,5.44,0,0,1,0,.57Zm0,.83c0,.22,0,.42,0,.61a3,3,0,0,1-.95.23c-.17,0-.33,0-.71,0a5.62,5.62,0,0,0-.92.08,1.65,1.65,0,0,0,.19-.76,2,2,0,0,1,1.21-.37c.37,0,.6.07,1.2.1v.15Zm-5,1.72.53,0a2,2,0,0,0,.55.08c.93,0,1-.82,2.31-.82.43,0,.73.09,1.35.09h.19a5.15,5.15,0,0,1-.15.68,9.33,9.33,0,0,1-1.23.26c-.18,0-.34,0-.75,0a25.86,25.86,0,0,0-2.78.47A3.46,3.46,0,0,1,21,20.16C21.06,20.16,21.83,20.19,22.86,20.19Zm-3.38,2h0a1,1,0,0,1-.84-1v-.46c1.25.39.34.68,2.36,1.65C20.93,22.35,20.31,22.3,19.48,22.17Zm6.11,0a8,8,0,0,1-1.68.28,2.23,2.23,0,0,1,1.55-.56c.29,0,.43,0,.71,0a2.92,2.92,0,0,1-.58.23Zm1.28-.71a2.92,2.92,0,0,1-.93.2c-.19,0-.35,0-.78,0-1.56.43-1.93.78-2.79.78-1.36,0-2.53-1.52-3.74-1.94V20c.76.07,1.44.1,1.69.11.28.47,2.92,1.26,3.62.91a3.66,3.66,0,0,1,1.91-.41c.41,0,.65.08,1.21.08l.36,0a2.76,2.76,0,0,1-.55.72Z"/><path class="cls-3" d="M6.27,21.73a.08.08,0,0,1-.08.08h0a.08.08,0,0,1-.07-.08h0V9.4a.08.08,0,0,1,.07-.08h6.12a.08.08,0,0,1,.08.08.08.08,0,0,1-.08.07h-6ZM6.19,8.81a.1.1,0,0,1-.07-.09.12.12,0,0,1,.07-.07h5.44c.54,0,1,0,1.42,0a8.61,8.61,0,0,1,1,.09h0a3.88,3.88,0,0,1,.76.21,3.68,3.68,0,0,1,.69.34h0a3.87,3.87,0,0,1,.59.48,3.49,3.49,0,0,1,.47.62,2.89,2.89,0,0,1,.33.74A3.23,3.23,0,0,1,17,12a3,3,0,0,1-.52,1.72h0a2.87,2.87,0,0,1-.62.68,3.12,3.12,0,0,1-.62.4,4.49,4.49,0,0,1,.92.42,3.23,3.23,0,0,1,.83.73h0a3.17,3.17,0,0,1,.52.93A3.64,3.64,0,0,1,17.68,18a3.82,3.82,0,0,1-.11.9,4,4,0,0,1-.34.87,4.34,4.34,0,0,1-.52.77,3.53,3.53,0,0,1-.68.6,4,4,0,0,1-.86.41,5.16,5.16,0,0,1-1,.22c-.25,0-.68.05-1.29.06s-1.22,0-2,0H7.22a.08.08,0,0,1-.07-.08.08.08,0,0,1,.07-.08h3.61c.82,0,1.5,0,2,0s1,0,1.27-.06a4.16,4.16,0,0,0,1-.21,3.33,3.33,0,0,0,1.48-1,4.58,4.58,0,0,0,.5-.74,4.24,4.24,0,0,0,.31-.84,3.56,3.56,0,0,0,.11-.86,3.26,3.26,0,0,0-.16-1,3.1,3.1,0,0,0-.49-.89h0a3.07,3.07,0,0,0-.79-.69A4.29,4.29,0,0,0,15,14.88h0a.08.08,0,0,1-.05-.05.09.09,0,0,1,0-.1,2.86,2.86,0,0,0,.77-.46,2.8,2.8,0,0,0,.59-.65h0a2.91,2.91,0,0,0,.38-.77,3.12,3.12,0,0,0,.12-.85,2.53,2.53,0,0,0-.1-.78,2.74,2.74,0,0,0-.3-.7,3.41,3.41,0,0,0-.46-.6,3.51,3.51,0,0,0-.56-.46h0a4.41,4.41,0,0,0-.65-.33A3.75,3.75,0,0,0,14,8.94h0c-.32,0-.65-.08-1-.1s-.86,0-1.41,0ZM14.48,20.7a.06.06,0,0,1,.08.06s0,.08-.07.09H7.22a.08.08,0,0,1-.07-.08h0V12A.07.07,0,0,1,7.23,12,.07.07,0,0,1,7.3,12v8.67Zm-5-9.27a.09.09,0,0,1,.08-.08.08.08,0,0,1,.07.08v2.38h2.21c.41,0,.72,0,.84,0a2.46,2.46,0,0,0,.61-.14,1.52,1.52,0,0,0,.46-.3,1.11,1.11,0,0,0,.28-.42,1.21,1.21,0,0,0,.09-.53,1.34,1.34,0,0,0-.32-.93,1.25,1.25,0,0,0-.41-.28,1.91,1.91,0,0,0-.58-.15l-.78,0H9v2.92A.07.07,0,0,1,9,14a.08.08,0,0,1-.08-.07v-3A.09.09,0,0,1,9,10.81h1.57l1.56,0c.39,0,.66,0,.8,0a2,2,0,0,1,.62.16,1.28,1.28,0,0,1,.73.78,1.56,1.56,0,0,1,.1.57,1.71,1.71,0,0,1-.11.59,1.27,1.27,0,0,1-.32.47,1.81,1.81,0,0,1-.5.33,2.94,2.94,0,0,1-.65.16l-.86,0H9.61a.07.07,0,0,1-.07-.07h0Zm-.6,8.11a.09.09,0,0,1-.08-.08.08.08,0,0,1,.07-.08h1.59c1.24,0,2.73,0,2.86,0a1.75,1.75,0,0,0,.53-.18,1.46,1.46,0,0,0,.42-.32h0a1.36,1.36,0,0,0,.28-.46,2,2,0,0,0,.09-.59,1.88,1.88,0,0,0-.07-.53,1.46,1.46,0,0,0-.22-.43h0a1.52,1.52,0,0,0-.34-.33,1.58,1.58,0,0,0-.47-.23,4.12,4.12,0,0,0-.88-.14c-.4,0-.92,0-1.54,0H9v2.7h4.15a.09.09,0,0,1,.08.08h0a.09.09,0,0,1-.08.08H9a.09.09,0,0,1-.08-.08V16.05A.08.08,0,0,1,9,16h2.22c.62,0,1.14,0,1.55,0a4.24,4.24,0,0,1,.91.14,2.49,2.49,0,0,1,.52.25,1.9,1.9,0,0,1,.38.37h0a1.77,1.77,0,0,1,.23.48,2.08,2.08,0,0,1,0,1.21,1.4,1.4,0,0,1-.31.51h0a1.6,1.6,0,0,1-.46.36,2.32,2.32,0,0,1-.58.19c-.14,0-1.64,0-2.88,0H8.93Z"/><path class="cls-2" d="M10.83,21.91H7.22A.18.18,0,0,1,7,21.73a.19.19,0,0,1,.18-.19h3.61c.77,0,1.45,0,2,0,.74,0,1.11-.05,1.27-.06a4.67,4.67,0,0,0,1-.21,3.2,3.2,0,0,0,.79-.38,3.43,3.43,0,0,0,.64-.56,3.47,3.47,0,0,0,.48-.72,3.58,3.58,0,0,0,.31-.81,3.31,3.31,0,0,0,.1-.83,3,3,0,0,0-.16-1,2.86,2.86,0,0,0-.46-.86,3.29,3.29,0,0,0-.77-.67A3.92,3.92,0,0,0,15,15a.19.19,0,0,1-.12-.1.33.33,0,0,1,0-.14.24.24,0,0,1,.1-.1,3.55,3.55,0,0,0,.75-.45,2.85,2.85,0,0,0,.57-.63,2.8,2.8,0,0,0,.38-2.32,2.47,2.47,0,0,0-.29-.67,3.53,3.53,0,0,0-.45-.57,3.24,3.24,0,0,0-.53-.45h0a3.11,3.11,0,0,0-.63-.32A3.83,3.83,0,0,0,14,9l-.11,0C13.66,9,13.37,9,13,9s-.87,0-1.4,0H6.19A.19.19,0,0,1,6,8.73a.18.18,0,0,1,.18-.18h5.44c.54,0,1,0,1.43,0a8.8,8.8,0,0,1,1,.09h0a5.28,5.28,0,0,1,.78.21,4.16,4.16,0,0,1,.7.35h0a3.61,3.61,0,0,1,.61.5,3.87,3.87,0,0,1,.49.64,2.7,2.7,0,0,1,.33.76,3.14,3.14,0,0,1-.43,2.63,3.27,3.27,0,0,1-.64.7,4.15,4.15,0,0,1-.43.3,4,4,0,0,1,.72.35,3.6,3.6,0,0,1,.86.75,3,3,0,0,1,.52,1A3.49,3.49,0,0,1,17.78,18a4.06,4.06,0,0,1-.11.92,4.89,4.89,0,0,1-.34.9,4.25,4.25,0,0,1-.54.79,3.79,3.79,0,0,1-.7.62,4.22,4.22,0,0,1-.88.43,4.66,4.66,0,0,1-1.05.21c-.26,0-.69.05-1.29.07S11.57,21.91,10.83,21.91Zm-4.64,0A.18.18,0,0,1,6,21.73H6V9.4a.19.19,0,0,1,.18-.19h6.12a.19.19,0,1,1,0,.37H6.38V21.73a.18.18,0,0,1-.19.18Zm1-.94a.19.19,0,0,1-.15-.08H7V12a.18.18,0,0,1,.18-.19.18.18,0,0,1,.19.19V20.6h7.07a.19.19,0,0,1,.2.17.2.2,0,0,1-.18.2H7.22Zm5.17-1.32H8.93a.18.18,0,0,1-.18-.18.18.18,0,0,1,.18-.19h1.83c1,0,2.47,0,2.59,0a1.8,1.8,0,0,0,.51-.17,1.24,1.24,0,0,0,.64-.71,1.91,1.91,0,0,0,0-1.06,1.2,1.2,0,0,0-.2-.39h0a1.11,1.11,0,0,0-.31-.3,1.57,1.57,0,0,0-.45-.22,3.69,3.69,0,0,0-.85-.13c-.39,0-.91-.05-1.53-.05h-2v2.49h4a.19.19,0,1,1,0,.37H9a.19.19,0,0,1-.19-.18V16.05A.19.19,0,0,1,9,15.86h2.22c.64,0,1.15,0,1.56.05a4,4,0,0,1,.94.15,2,2,0,0,1,.54.27,1.52,1.52,0,0,1,.39.37l0,0a1.62,1.62,0,0,1,.25.51,2.15,2.15,0,0,1,0,1.28,1.36,1.36,0,0,1-.3.52h0l0,0a1.92,1.92,0,0,1-.49.37,2.32,2.32,0,0,1-.61.21Zm-2.07-5.58H9.5v0a.21.21,0,0,1-.07-.15V11.43a.19.19,0,0,1,.19-.18.18.18,0,0,1,.18.18h0V13.7h2.1l.83,0a2,2,0,0,0,.58-.15,1.26,1.26,0,0,0,.42-.27,1,1,0,0,0,.26-.38,1.22,1.22,0,0,0,.08-.5,1.59,1.59,0,0,0-.07-.48,1.1,1.1,0,0,0-.23-.37,1,1,0,0,0-.36-.25,1.78,1.78,0,0,0-.55-.14c-.13,0-.38,0-.77,0l-1.56,0H9.13v2.82a.17.17,0,0,1-.19.17.19.19,0,0,1-.18-.17v-3A.19.19,0,0,1,9,10.71h3.13c.39,0,.66,0,.81,0a2,2,0,0,1,.65.17,1.41,1.41,0,0,1,.8.84,2.11,2.11,0,0,1,.1.61,1.68,1.68,0,0,1-.12.63,1.38,1.38,0,0,1-.34.52,1.9,1.9,0,0,1-.54.34,2.71,2.71,0,0,1-.68.17l-.86,0H10.32Z"/><path class="cls-3" d="M5.47,11.58a.08.08,0,0,1,.16,0L5.5,23.34a.07.07,0,0,1-.07.07h0a.07.07,0,0,1-.08-.07h0Z"/><path class="cls-3" d="M4.81,12.53a.08.08,0,0,1,.07-.08.08.08,0,0,1,.08.08l-.09,8.64a.07.07,0,0,1-.08.08.07.07,0,0,1-.07-.08Z"/><path class="cls-3" d="M13.09,9.88A.09.09,0,0,1,13,9.79h0a.08.08,0,0,1,.09-.06h0a2.61,2.61,0,0,1,.61.16,2.94,2.94,0,0,1,.53.27h0a2.5,2.5,0,0,1,.84.87,2.21,2.21,0,0,1,.26.59,2.37,2.37,0,0,1,.09.65A2.42,2.42,0,0,1,15,13.62h0a2.79,2.79,0,0,1-.49.54,2.58,2.58,0,0,1-.64.38.08.08,0,0,1-.1,0,.07.07,0,0,1,0-.11h0a2.62,2.62,0,0,0,.6-.37,2.19,2.19,0,0,0,.46-.5h0a2.31,2.31,0,0,0,.3-.61,2.38,2.38,0,0,0,0-1.27,2.21,2.21,0,0,0-.23-.55,2.72,2.72,0,0,0-.8-.82h0a3.06,3.06,0,0,0-.51-.26,2.91,2.91,0,0,0-.58-.15ZM13,13.4a.08.08,0,0,1-.11,0h0a.09.09,0,0,1,0-.1.86.86,0,0,0,.23-.33,1.14,1.14,0,0,0,.07-.41,1.09,1.09,0,0,0-.07-.4.8.8,0,0,0-.19-.32,1,1,0,0,0-.31-.22,1.65,1.65,0,0,0-.45-.11.08.08,0,0,1-.07-.08.08.08,0,0,1,.08-.07h0a1.67,1.67,0,0,1,.49.12,1.18,1.18,0,0,1,.37.26,1.2,1.2,0,0,1,.22.36,1.43,1.43,0,0,1,.07.46,1.27,1.27,0,0,1-.09.47,1,1,0,0,1-.25.38Z"/></svg>