<svg id="Layer_1" data-name="Layer 1" xmlns="http://www.w3.org/2000/svg" viewBox="0 0 1366 768"><defs><style>.cls-1{fill:#fff;}.cls-2{fill:#59b256;}.cls-3{fill:#f5f5f5;}</style></defs><rect class="cls-1" x="286.56" y="245.13" width="1053.44" height="278.74" rx="123.5"/><rect class="cls-2" x="27" y="159.93" width="448.52" height="448.52" rx="224.26"/><path class="cls-1" d="M396.75,358.49l-1.26,2.24,1.26-2.24c-8.83-5-19.87-7.37-33-7.37h-21c-7.89,0-13.52-1.6-17.05-4.35-4.21-3.27-5.33-8.73-5.33-14V327c0-6.53,1.05-16.05,13.71-19.19a70.35,70.35,0,0,1,16.77-1.8c23.49,0,58.28,2.59,59.47,2.59a2.57,2.57,0,0,0,2.57-2.57V286.88A20,20,0,0,0,396,267.13c-30.41-4.79-47.63-4.5-50.07-4.5h-.05c-75.08,0-71.23,54.86-71.23,62.33V335.3c0,32.35,11.61,61.47,65.49,61.47h18.1c6.51,0,11.11,1.57,14.23,4.37,2.49,2.25,4.75,5.92,4.75,12.6v7.76c0,5.13-1.3,8.75-3.64,11.34-1.89,2.07-7,7.63-29.12,7.63q-10.61,0-22.35-.29t-22.63-.86c-12.21-.63-19.45-1.44-19.67-1.44a2.58,2.58,0,0,0-2.57,2.58v19.42a19.93,19.93,0,0,0,16.65,19.72l.16,0h0a323.91,323.91,0,0,0,52.41,4.2q22.39,0,39.36-4.84c27.58-7.88,37-29.95,37.05-58.64V408.26C422.91,401.72,422.66,373.06,396.75,358.49Zm2,7.42c-8.08-1.37-17.11-6.33-21.45-8.59a51.27,51.27,0,0,1,16.9,5.65h0A48.59,48.59,0,0,1,398.78,365.91ZM279.84,335.3V325c0-2.64.11-5.16.3-7.6a27.5,27.5,0,0,0,3.13.74c4.15,2.4,6.84,2.83,8.94,2.83,1.18,0,2.17-.13,3.12-.13,3.3,0,12.35-.31,17.72,2,2.27,1-1.36,5.11,2.15,5.64v4.25c0,.15,0,.29,0,.44a72.74,72.74,0,0,1-13.31,1.37c-4,0-5.56-.31-9.29-.31-7.12,0-9.31,1.32-11.75,1.32a6.19,6.19,0,0,1-1-.08Zm16.46-53.37A29.6,29.6,0,0,0,307,285.8a18.06,18.06,0,0,0,7.84,2.95c-1.44-1.12-9.23-8-12.92-10.81a63.39,63.39,0,0,1,18.44-7.37c3.06,1.78,5.48,2,7.63,2.81-1-.85-2.39-2-4.35-3.59,18.09-3.61,36.5-1.4,45.53-.87-3.64,2.34-7.41,5.21-16.14,5.21-2.53,0-3.53-.21-6.38-.21-8.7,0-10.5,2.45-13,2.45a4.3,4.3,0,0,1-.78-.08c5.88,3.78,12.79,1.83,16,1.83,2.73,0,11.09-2.55,15.33-2.55,4.39,0,12.77-2.56,12.77-2.56a30.72,30.72,0,0,1,12.78-2.55c3.46,0,11.43,6.44,16.2,9.37a14.84,14.84,0,0,1,1.81,7.05v16c-11.9-5.81-2.4-2.14-25.68-12-7.58-3.22-12.94-2.56-16.61-2.56-8.77,0-5.5,2.56-19.16,2.56-2.73,0-13.57,1.27-16.61,1.27-7.66,0-7.9,1-10.22,1.28,8.07,5.11,12,1.28,16.61,1.28,1,0,14.08-2.56,15.33-2.56h21.72c11.92,0,2.18,1.48,9.34,1.48,9.92,0,17.46,8.41,18.22,9.17C375.81,301.32,367,301,358,300.9a29.26,29.26,0,0,0-8.28-1.4,20.56,20.56,0,0,0-8,1.79c-9,.91-12.72,2.72-13.37,3-.47,0-.95,0-1.44,0-3,0-4.13-.24-7.33-.24a36,36,0,0,0-11,1.62l.38.2a54.9,54.9,0,0,0,10.39,5.41,21.35,21.35,0,0,0-3.43,8.08c-.59,0-1.19,0-1.83,0-3.3,0-4.55-.27-8-.27-7.5,0-9.6,1.55-12.11,1.55a8.49,8.49,0,0,1-3.75-1c-3.72-1.73-4-2-9.56-7.14,1.36-9.53,3.79-14.34,3.85-14.48a29.68,29.68,0,0,0,10.56,3.9,17.17,17.17,0,0,0,8.29,2.85c-2.94-1.34-2.75-1.56-15.69-12.88A39.92,39.92,0,0,1,296.3,281.93Zm.84,98.4a62.36,62.36,0,0,0,15.18,1.85c3.57,0,6.68-.25,9.66-.25,6,0,11.36,1,18.69,7,.46.37.72,1.29,1.85,2.72h-2.34C321.47,391.63,307.24,387.73,297.14,380.33Zm61.19,11.3h-6.19c-22.89-13.55-17.38-8.75-48-11.31-15.29-4.22-11.5-8.94-19-15.15a50.52,50.52,0,0,1-3.15-9.61c22.19-11,46.47,1.77,70.17,15.44,1.36,1.08,32.24,14.43,36.34,14.43,6.73,0,7.9-.52,13.64-2.66a54.7,54.7,0,0,1-10.36,1.35c-17,0-28.22-13.62-65.82-29.23-11.25-4.72-16.63-5.75-21.7-5.75-3.95,0-7.71.63-13.92.63-4.38,0-6.37-.27-9.49-.35a97.65,97.65,0,0,1-.9-12.33h.56c2,0,3.38-.48,4.81-.48.84,0,11.2,1.55,20.14.27,12.78-3.83,13.67,10.28,13.67,10.28s7.86,9.08,23.72,9.09h21c.79,0,2.31.06,2.31.06a144.9,144.9,0,0,1,16,6.12c7.06,3.28,7.68,3.83,11.5,3.83,2.52,0,5.76,2.25,7.71,1.56a41.69,41.69,0,0,1,10.53,13.27,27.29,27.29,0,0,0-9.71,1.67,74.69,74.69,0,0,1,9.91-1.26,55.45,55.45,0,0,1,5.14,17.17c-2.27-.06-4.36-.44-9.06-.44-13.43,0-19.82,3.69-28.21,3.69h-.22C374.34,392.57,363.69,391.63,358.33,391.63Zm59.44,16.65v6.23a22.38,22.38,0,0,1-7.19,1.22c-2.31,0-4.56-.46-10-.46a74.48,74.48,0,0,0-18.16,2.26v-3.79a28,28,0,0,0-.76-6.62c7.82-1.84,11.56-8.33,24.34-8.33,3.9,0,6.29.5,11.3,1.14A72.78,72.78,0,0,1,417.77,408.28Zm0,12.11c0,3.17-.15,6.14-.38,9-4.16,1.07-7.93,3.24-13.89,3.24-2.49,0-4.75-.46-10.41-.46a75.59,75.59,0,0,0-13.51,1.18,22.81,22.81,0,0,0,2.8-11.2c4.28-2.69,9-5.48,17.72-5.48,5.53,0,8.89,1.07,17.67,1.58v2.14ZM344.5,445.62c2.73,0,5.29-.12,7.77-.29a32.42,32.42,0,0,0,8,1.12c13.58,0,15.25-12,33.94-12,6.18,0,10.69,1.36,19.69,1.36,1,0,1.94,0,2.81-.06a66.91,66.91,0,0,1-2.27,9.95c-5.82.44-10.16,3.88-18,3.88-2.65,0-5-.48-10.89-.48-20.39,0-29.21,6.87-40.81,6.87-7.41,0-16-3-27.54-10.76C318.12,445.21,329.38,445.62,344.5,445.62Zm-49.59,28.93h0l-.16,0h0a14.78,14.78,0,0,1-12.33-14.64v-6.66c18.35,5.72,5,10,34.71,24.12C316.24,477.25,307.07,476.51,294.91,474.55Zm89.53-.51a122,122,0,0,1-24.63,4.15c5.15-4,10.93-8.25,22.77-8.25,4.21,0,6.3.44,10.46.74A50.59,50.59,0,0,1,384.44,474Zm18.75-10.42c-3.92,1.19-7.91,2.86-13.63,2.86-2.77,0-5.16-.48-11.32-.48-23,6.31-28.33,11.42-40.92,11.42-20,0-37.12-22.25-54.9-28.5v-5.64c11.12,1,21.17,1.39,24.89,1.55,4,6.89,42.78,18.53,53,13.42,5.11-1.27,7.32-6.08,27.94-6.08,6,0,9.58,1.14,17.74,1.14,2,0,3.79-.1,5.32-.24A38,38,0,0,1,403.19,463.62Z"/><path class="cls-3" d="M101.34,468.14a1.13,1.13,0,0,1-1.13,1.13,1.11,1.11,0,0,1-1.11-1.13V287.44a1.12,1.12,0,0,1,1.11-1.13.13.13,0,0,1,.1,0h89.57a1.11,1.11,0,1,1,0,2.22H101.34Zm-1.13-189.37a1.12,1.12,0,0,1,0-2.23h79.73q11.85,0,20.77.46a144.16,144.16,0,0,1,14.74,1.42h0a60,60,0,0,1,11.26,3,54.16,54.16,0,0,1,10,5l.05,0a49.45,49.45,0,0,1,8.58,7.1,54.43,54.43,0,0,1,7,9.11,41.1,41.1,0,0,1,4.72,10.81,45.23,45.23,0,0,1,1.59,12A44.25,44.25,0,0,1,251,350.61h0a45.81,45.81,0,0,1-9.09,10,50.06,50.06,0,0,1-9.15,5.89,61.4,61.4,0,0,1,13.55,6.15,47.85,47.85,0,0,1,12.16,10.7h0A45.13,45.13,0,0,1,266,397a49.3,49.3,0,0,1,2.49,15.82,54,54,0,0,1-1.6,13.1A59.31,59.31,0,0,1,262,438.65a57.62,57.62,0,0,1-7.65,11.3,52.85,52.85,0,0,1-10.05,8.79,51.81,51.81,0,0,1-12.53,6.07,67.84,67.84,0,0,1-15,3.15q-5.37.59-18.85,1c-8,.2-17.93.34-29.83.34H115.29a1.12,1.12,0,0,1,0-2.24h52.82q18.15,0,29.76-.34c8.92-.22,15.14-.58,18.7-.94a68,68,0,0,0,14.49-3,48.69,48.69,0,0,0,21.62-14.24A53.75,53.75,0,0,0,260,437.61a56.93,56.93,0,0,0,4.65-12.22,51.9,51.9,0,0,0,1.55-12.58,46.33,46.33,0,0,0-2.4-15.11,42.51,42.51,0,0,0-7.11-13h0a45.57,45.57,0,0,0-11.61-10.18,60.13,60.13,0,0,0-15.78-6.76h0a1.15,1.15,0,0,1-.72-.65,1.12,1.12,0,0,1,.59-1.46,47.39,47.39,0,0,0,11.3-6.81,43.78,43.78,0,0,0,8.63-9.51h0A42.94,42.94,0,0,0,254.63,338a43.42,43.42,0,0,0,1.83-12.49,42.65,42.65,0,0,0-1.5-11.44,39.85,39.85,0,0,0-4.45-10.23,54.18,54.18,0,0,0-6.75-8.73,48.11,48.11,0,0,0-8.19-6.76l0,0a50.23,50.23,0,0,0-9.58-4.81,55.64,55.64,0,0,0-10.86-2.87l0,0a141.16,141.16,0,0,0-14.52-1.37c-5.83-.31-12.7-.47-20.65-.47ZM221.65,453a1.11,1.11,0,1,1,0,2.21l-106.36.14a1.11,1.11,0,0,1-1.09-1.12h0V326.09a1.12,1.12,0,0,1,2.23,0V453.17ZM149.16,317.23a1.11,1.11,0,1,1,2.22,0l0,34.88h9.17c8.35,0,16.66-.07,23.14-.2,6-.12,10.52-.28,12.3-.48a32.69,32.69,0,0,0,9-2.19,21.39,21.39,0,0,0,6.63-4.28,17.11,17.11,0,0,0,4.17-6.13,21,21,0,0,0,1.38-7.88,22.42,22.42,0,0,0-1.21-7.61,16.79,16.79,0,0,0-3.6-5.95,17.46,17.46,0,0,0-5.92-4.14,28.45,28.45,0,0,0-8.5-2.15c-2-.22-5.8-.38-11.48-.5s-13.16-.17-22.76-.17h-22v42.8a1.12,1.12,0,0,1-2.24,0V309.31a1.13,1.13,0,0,1,1.13-1.12h23.1q14,0,22.81.17,8.64.18,11.68.52a30.85,30.85,0,0,1,9.12,2.3,19.32,19.32,0,0,1,10.76,11.4,25,25,0,0,1,1.34,8.37,23.74,23.74,0,0,1-1.53,8.71,19.36,19.36,0,0,1-4.72,6.92,23.81,23.81,0,0,1-7.33,4.72,33.86,33.86,0,0,1-9.54,2.35c-1.84.22-6.48.38-12.53.49-6.76.14-15.11.2-23.17.2H150.32v0a1.1,1.1,0,0,1-1.11-1.09ZM140.3,436a1.12,1.12,0,0,1-1.11-1.12,1.07,1.07,0,0,1,1.09-1.11c3.53-.05,12.73,0,23.16,0,18.14.12,40,.28,41.9-.08a27.47,27.47,0,0,0,7.82-2.6,22.49,22.49,0,0,0,6.19-4.67h0a19.59,19.59,0,0,0,4-6.72,26.71,26.71,0,0,0,1.36-8.76,26.45,26.45,0,0,0-1.05-7.65,20.43,20.43,0,0,0-3.11-6.29l0,0a21.05,21.05,0,0,0-5-4.86,27.35,27.35,0,0,0-7-3.43q-4-1.31-12.84-2c-5.9-.45-13.45-.67-22.58-.67H141.71v39.68h60.77a1.1,1.1,0,0,1,1.12,1.11,1.12,1.12,0,0,1-1.12,1.12h-2.24c-1.68,0-2.19,0-2.35,0H140.6a1.14,1.14,0,0,1-1.13-1.12V384.87a1.11,1.11,0,0,1,1.13-1.11h32.52q13.77,0,22.76.69c6.07.47,10.51,1.17,13.35,2.1a29.46,29.46,0,0,1,7.54,3.72,22.28,22.28,0,0,1,5.55,5.4l.05,0a22.63,22.63,0,0,1,3.44,7,30.85,30.85,0,0,1-.35,17.78,21.57,21.57,0,0,1-4.48,7.48h0a25.25,25.25,0,0,1-6.78,5.15,30.39,30.39,0,0,1-8.46,2.8c-2.06.38-24.08.25-42.33.13-10.4-.06-19.57-.11-23.11-.06Z"/><path class="cls-1" d="M168.11,470.86H115.29a2.71,2.71,0,1,1,0-5.42h52.82c11.35,0,21.35-.12,29.72-.34,10.75-.27,16.26-.7,18.58-.93a67.67,67.67,0,0,0,14.15-3,48.69,48.69,0,0,0,11.64-5.64,48.21,48.21,0,0,0,9.28-8.15,52.2,52.2,0,0,0,7.12-10.53A55.85,55.85,0,0,0,263.13,425a51,51,0,0,0,1.49-12.2,44.77,44.77,0,0,0-2.3-14.6,41.54,41.54,0,0,0-6.86-12.5,44.29,44.29,0,0,0-11.2-9.82,59.39,59.39,0,0,0-15.37-6.58,2.77,2.77,0,0,1-1.75-1.55,2.67,2.67,0,0,1,0-2,2.75,2.75,0,0,1,1.45-1.51,46,46,0,0,0,10.93-6.58,42.13,42.13,0,0,0,8.32-9.17,41.43,41.43,0,0,0,5.63-34,38.26,38.26,0,0,0-4.28-9.83,51,51,0,0,0-6.54-8.45,46,46,0,0,0-7.85-6.49l-.1-.06a48.57,48.57,0,0,0-9.28-4.66,53.7,53.7,0,0,0-10.55-2.79l-1.61-.26c-3.58-.49-7.84-.86-12.71-1.11-5.84-.31-12.76-.47-20.57-.47H100.21a2.71,2.71,0,0,1,0-5.42h79.73c7.88,0,14.89.16,20.85.47a147.44,147.44,0,0,1,14.79,1.41l.15,0a62,62,0,0,1,11.56,3.06,55.79,55.79,0,0,1,10.24,5.15l.12.07a51,51,0,0,1,8.85,7.32,56.57,56.57,0,0,1,7.25,9.38,42.81,42.81,0,0,1,4.89,11.23,46.18,46.18,0,0,1-6.34,38.45,47.49,47.49,0,0,1-9.4,10.32,49.54,49.54,0,0,1-6.26,4.34,61.39,61.39,0,0,1,10.48,5.11,49.77,49.77,0,0,1,12.57,11.06,47.09,47.09,0,0,1,7.76,14.14A51,51,0,0,1,270,412.81a56,56,0,0,1-1.65,13.48,61.36,61.36,0,0,1-5,13.08A59.31,59.31,0,0,1,255.56,451a54.27,54.27,0,0,1-10.36,9.07,53.7,53.7,0,0,1-12.91,6.26A70.26,70.26,0,0,1,217,469.55c-3.78.4-10.17.73-19,1S179.06,470.86,168.11,470.86Zm-67.9,0a2.69,2.69,0,0,1-2.7-2.72V287.44a2.71,2.71,0,0,1,2.7-2.72l89.67,0a2.7,2.7,0,1,1,0,5.4H102.93v178A2.72,2.72,0,0,1,100.21,470.86ZM115.29,457a2.67,2.67,0,0,1-2.17-1.12h-.51l0-1.59V326.09a2.71,2.71,0,0,1,5.42,0V451.58l103.65-.13a2.7,2.7,0,1,1,0,5.39ZM191,437.73c-7.2,0-16.58-.05-27.38-.11h-.18c-11.44-.08-19.74-.11-23.08-.07h0a2.72,2.72,0,0,1-2.71-2.71,2.7,2.7,0,0,1,2.69-2.71c2.61,0,8.22,0,15.33,0l11.43.06c15.3.09,36.25.22,38-.09a26.07,26.07,0,0,0,7.4-2.44,21,21,0,0,0,5.75-4.35,17.89,17.89,0,0,0,3.65-6.16,27,27,0,0,0,.3-15.42,18.89,18.89,0,0,0-2.87-5.81l-.1-.14a19.43,19.43,0,0,0-4.56-4.39,26,26,0,0,0-6.58-3.23c-2.51-.83-6.71-1.48-12.46-1.94s-13.33-.66-22.45-.66H143.31v36.5l59.17,0a2.71,2.71,0,0,1,0,5.42h-2.24c-1.26,0-1.85,0-2.13,0H140.6a2.72,2.72,0,0,1-2.72-2.71V384.87a2.71,2.71,0,0,1,2.72-2.7h32.52c9.43,0,16.92.22,22.88.69,6.27.49,10.76,1.2,13.73,2.18a31.21,31.21,0,0,1,8,3.93,23.89,23.89,0,0,1,5.7,5.46l.27.32a24,24,0,0,1,3.69,7.47A32.47,32.47,0,0,1,227,421a22.87,22.87,0,0,1-4.39,7.57v0l-.43.46A26.92,26.92,0,0,1,215,434.5a32.13,32.13,0,0,1-8.93,3C204.92,437.66,199.47,437.73,191,437.73Zm-50.66-2.41Zm20.29-79.38H148.73v-.54a2.69,2.69,0,0,1-1.11-2.17l-.05-36a2.7,2.7,0,1,1,5.4,0l0,33.28h7.58c8.81,0,17-.07,23.1-.19,8-.16,11-.34,12.16-.47a30.84,30.84,0,0,0,8.52-2.08,20,20,0,0,0,6.15-4,15.39,15.39,0,0,0,3.79-5.57,19.6,19.6,0,0,0,1.27-7.29,21,21,0,0,0-1.12-7.07,15.51,15.51,0,0,0-3.26-5.41,15.78,15.78,0,0,0-5.4-3.76,27.23,27.23,0,0,0-8-2c-1.86-.21-5.57-.37-11.34-.48S173,312,163.7,312H143.31v41.21a2.72,2.72,0,0,1-5.43,0V309.31a2.71,2.71,0,0,1,2.72-2.71h23.1c8.92,0,16.6.06,22.84.17,5.6.11,9.69.29,11.82.53a32.37,32.37,0,0,1,9.59,2.43,20.78,20.78,0,0,1,11.62,12.32A26.46,26.46,0,0,1,221,331a25.35,25.35,0,0,1-1.64,9.29,21.1,21.1,0,0,1-5.1,7.49,25.18,25.18,0,0,1-7.81,5,35.68,35.68,0,0,1-10,2.48c-1.78.21-6.05.37-12.67.49S169,355.94,160.59,355.94Z"/><path class="cls-3" d="M89.68,319.49a1.12,1.12,0,0,1,2.24,0L90.1,491.74a1.07,1.07,0,0,1-1.12,1.1,1.1,1.1,0,0,1-1.09-1.12Z"/><path class="cls-3" d="M79.9,333.3a1.12,1.12,0,0,1,2.24,0L80.82,460a1.12,1.12,0,0,1-2.24,0Z"/><path class="cls-3" d="M201.36,294.45a1.1,1.1,0,0,1-.91-1.28,1.08,1.08,0,0,1,1.27-.92,47.74,47.74,0,0,1,8.89,2.35,41.22,41.22,0,0,1,7.88,4l0,.05a40.31,40.31,0,0,1,6.79,5.59,43.07,43.07,0,0,1,5.53,7.19,32.8,32.8,0,0,1,3.75,8.55,36.47,36.47,0,0,1,1.24,9.49,34.49,34.49,0,0,1-6.11,19.83h0a35.66,35.66,0,0,1-7.17,7.91,38.89,38.89,0,0,1-9.33,5.61,1.11,1.11,0,1,1-.9-2,36.75,36.75,0,0,0,8.83-5.31,34,34,0,0,0,6.72-7.41h0a34.23,34.23,0,0,0,4.31-8.86,34.3,34.3,0,0,0,.25-18.65,30.88,30.88,0,0,0-3.48-8,38.54,38.54,0,0,0-11.63-12.09l-.05,0a40.19,40.19,0,0,0-7.47-3.76,45.66,45.66,0,0,0-8.46-2.23ZM200,346.15a1.11,1.11,0,0,1-1.57,0,1.14,1.14,0,0,1,0-1.57,13.45,13.45,0,0,0,3.23-4.72,16.48,16.48,0,0,0,1.07-6.09,17.33,17.33,0,0,0-.94-5.91,13.4,13.4,0,0,0-2.78-4.59,13.79,13.79,0,0,0-4.58-3.2,21.93,21.93,0,0,0-6.6-1.65,1.14,1.14,0,0,1-1-1.24,1.1,1.1,0,0,1,1.24-1,24.1,24.1,0,0,1,7.23,1.83,15.3,15.3,0,0,1,5.33,3.74,15.51,15.51,0,0,1,3.25,5.35,19.61,19.61,0,0,1,1.07,6.65,18.48,18.48,0,0,1-1.26,6.91,15,15,0,0,1-3.73,5.51Z"/><path class="cls-2" d="M563.39,379.26a19.51,19.51,0,0,1,4.12,12.24q0,10.15-7,15.92t-19.63,5.75H501.49V333.61h38.15q12.18,0,19.12,5.42t6.94,15.23a17.71,17.71,0,0,1-13.43,18.06A18.74,18.74,0,0,1,563.39,379.26Zm-39.78-14.05h11.17q8.36,0,8.35-6.88,0-7.11-8.35-7.11H523.61Zm21.22,23.13a7,7,0,0,0-2.2-5.53,9.25,9.25,0,0,0-6.27-1.91H523.61v14.44h12.87Q544.82,395.34,544.83,388.34Z"/><path class="cls-2" d="M577.16,364.31a27.08,27.08,0,0,1,9.7-11.29,24.86,24.86,0,0,1,13.71-3.95,23.17,23.17,0,0,1,11.29,2.6,18.78,18.78,0,0,1,7.33,7v-8.8h22.12v63.31H619.19v-8.8a18.67,18.67,0,0,1-7.39,7,23.14,23.14,0,0,1-11.23,2.6A24.86,24.86,0,0,1,586.86,410a26.92,26.92,0,0,1-9.7-11.34,39.31,39.31,0,0,1-3.56-17.21A38.88,38.88,0,0,1,577.16,364.31Zm38.7,7.56a11.45,11.45,0,0,0-16.42-.06q-3.27,3.45-3.27,9.65t3.27,9.65a11.32,11.32,0,0,0,16.42.05q3.33-3.5,3.33-9.7T615.86,371.87Z"/><path class="cls-2" d="M665.63,411.08a26.09,26.09,0,0,1-10.61-7.9,20.49,20.49,0,0,1-4.34-11.34h21.44a6.79,6.79,0,0,0,2.82,4.74,9.84,9.84,0,0,0,5.87,1.69,7.3,7.3,0,0,0,4.29-1.12,3.48,3.48,0,0,0,1.58-2.94,3.72,3.72,0,0,0-2.6-3.5,53.2,53.2,0,0,0-8.58-2.48,73.71,73.71,0,0,1-11.28-3.05,19,19,0,0,1-7.84-5.53q-3.33-3.82-3.33-10.38a18,18,0,0,1,3-10.21,20.87,20.87,0,0,1,9-7.28,34.05,34.05,0,0,1,14.27-2.71q12.42,0,19.52,6.1a23.8,23.8,0,0,1,8.24,16h-20a7.42,7.42,0,0,0-2.65-4.68,8.85,8.85,0,0,0-5.59-1.64,7,7,0,0,0-4.12,1,3.26,3.26,0,0,0-1.41,2.82q0,2.25,2.59,3.44a44.59,44.59,0,0,0,8.36,2.43,73.24,73.24,0,0,1,11.45,3.27,20.25,20.25,0,0,1,8,5.81q3.45,4,3.44,10.89a16.42,16.42,0,0,1-3.21,9.93,21.42,21.42,0,0,1-9.14,6.94A35.26,35.26,0,0,1,680.92,414,38.46,38.46,0,0,1,665.63,411.08Z"/><path class="cls-2" d="M718,364.31A27,27,0,0,1,727.7,353a24.82,24.82,0,0,1,13.71-3.95,23.15,23.15,0,0,1,11.28,2.6,18.87,18.87,0,0,1,7.34,7v-8.8h22.11v63.31H760v-8.8a18.77,18.77,0,0,1-7.4,7,23.1,23.1,0,0,1-11.22,2.6A24.82,24.82,0,0,1,727.7,410,26.87,26.87,0,0,1,718,398.67a39.31,39.31,0,0,1-3.55-17.21A38.88,38.88,0,0,1,718,364.31Zm38.71,7.56a11.45,11.45,0,0,0-16.42-.06c-2.19,2.3-3.27,5.51-3.27,9.65s1.08,7.28,3.27,9.65a10.7,10.7,0,0,0,8.23,3.55,10.84,10.84,0,0,0,8.19-3.5c2.21-2.33,3.33-5.56,3.33-9.7S758.91,374.2,756.7,371.87Z"/><path class="cls-2" d="M896.29,356.52q6.83,7.23,6.83,19.75v36.9H881v-34c0-3.38-.94-6-2.82-7.9a11.85,11.85,0,0,0-15.35,0c-1.88,1.88-2.82,4.52-2.82,7.9v34H837.89v-34c0-3.38-.92-6-2.77-7.9a10.16,10.16,0,0,0-7.61-2.82,10.53,10.53,0,0,0-7.79,2.82c-1.88,1.88-2.82,4.52-2.82,7.9v34H794.78V349.86H816.9v8.35a21.32,21.32,0,0,1,7.62-6.49,23.16,23.16,0,0,1,10.77-2.42,25.2,25.2,0,0,1,12.47,3,22.4,22.4,0,0,1,8.64,8.58,26.23,26.23,0,0,1,8.91-8.41,23.85,23.85,0,0,1,12.19-3.21Q889.46,349.3,896.29,356.52Z"/><path class="cls-2" d="M944,407.36q-8.93-6.6-9.6-18.9H958q.33,4.17,2.48,6.09a9,9,0,0,0,10.55.39,5,5,0,0,0,2-4.23,6,6,0,0,0-3.27-5.41A57.88,57.88,0,0,0,959.09,381a96.14,96.14,0,0,1-12.58-5,24.19,24.19,0,0,1-8.36-7.11q-3.55-4.68-3.55-12.25a22.3,22.3,0,0,1,3.84-13.14,23.69,23.69,0,0,1,10.6-8.3,39.63,39.63,0,0,1,15.35-2.82q13.89,0,22.18,6.49t8.85,18.22h-24a7.1,7.1,0,0,0-2.2-5.41,7.94,7.94,0,0,0-5.36-1.81,5.71,5.71,0,0,0-4.06,1.47,5.4,5.4,0,0,0-1.59,4.17,5.18,5.18,0,0,0,1.75,3.9,16.17,16.17,0,0,0,4.35,2.82q2.6,1.18,7.67,3a94.55,94.55,0,0,1,12.47,5.13,25.7,25.7,0,0,1,8.47,7.11A18.3,18.3,0,0,1,996.44,389a23.4,23.4,0,0,1-3.55,12.75,24.46,24.46,0,0,1-10.27,8.92A35.9,35.9,0,0,1,966.76,414Q952.89,414,944,407.36Z"/><path class="cls-2" d="M1066.86,386H1025c.23,3.46,1.18,6,2.88,7.73a8.75,8.75,0,0,0,6.49,2.54,8.13,8.13,0,0,0,7.9-5h23.58a27.7,27.7,0,0,1-5.7,11.68,29.43,29.43,0,0,1-10.66,8.07,34,34,0,0,1-14.22,2.93,34.4,34.4,0,0,1-16.65-3.95,28.29,28.29,0,0,1-11.39-11.28,38.38,38.38,0,0,1-.06-34.48A28.18,28.18,0,0,1,1018.5,353a37.64,37.64,0,0,1,33.35-.11,27.65,27.65,0,0,1,11.28,11,33.63,33.63,0,0,1,4.07,16.87A41.12,41.12,0,0,1,1066.86,386Zm-22.23-10.72a7.94,7.94,0,0,0-2.71-6.37,10.08,10.08,0,0,0-6.77-2.32,10,10,0,0,0-6.66,2.2,10.74,10.74,0,0,0-3.39,6.49Z"/><path class="cls-2" d="M1107.37,352.46a21.83,21.83,0,0,1,11.4-3.16v23.58h-6.21c-4.81,0-8.39.95-10.72,2.82s-3.5,5.16-3.5,9.82v27.65h-22.12V349.86h22.12V361A28.64,28.64,0,0,1,1107.37,352.46Z"/><path class="cls-2" d="M1126.61,364.31a27.08,27.08,0,0,1,9.7-11.29,24.86,24.86,0,0,1,13.71-3.95,23.17,23.17,0,0,1,11.29,2.6,18.78,18.78,0,0,1,7.33,7v-8.8h22.12v63.31h-22.12v-8.8a18.67,18.67,0,0,1-7.39,7A23.11,23.11,0,0,1,1150,414a24.86,24.86,0,0,1-13.71-3.95,26.92,26.92,0,0,1-9.7-11.34,39.31,39.31,0,0,1-3.56-17.21A38.88,38.88,0,0,1,1126.61,364.31Zm38.71,7.56a11.45,11.45,0,0,0-16.42-.06q-3.29,3.45-3.28,9.65t3.28,9.65a10.7,10.7,0,0,0,8.23,3.55,10.84,10.84,0,0,0,8.19-3.5q3.32-3.5,3.32-9.7T1165.32,371.87Z"/><path class="cls-2" d="M1203.34,364.31a26.94,26.94,0,0,1,9.77-11.29,25.1,25.1,0,0,1,13.76-3.95,22.91,22.91,0,0,1,10.89,2.54,19.14,19.14,0,0,1,7.51,6.94V329.66h22.23v83.51h-22.23v-8.8a18.8,18.8,0,0,1-7.34,7,22.79,22.79,0,0,1-11.17,2.6,24.86,24.86,0,0,1-13.71-3.95,26.94,26.94,0,0,1-9.71-11.34,39.45,39.45,0,0,1-3.55-17.21A39,39,0,0,1,1203.34,364.31Zm38.71,7.56a11.45,11.45,0,0,0-16.42-.06q-3.27,3.45-3.27,9.65t3.27,9.65a10.72,10.72,0,0,0,8.24,3.55,10.83,10.83,0,0,0,8.18-3.5q3.33-3.5,3.33-9.7T1242.05,371.87Z"/></svg>