<svg xmlns="http://www.w3.org/2000/svg" viewBox="0 0 2000 2000"><defs><style>.cls-1{fill:#4f95cf;}.cls-2{fill:#ffbc3b;}.cls-3{fill:#dedede;}.cls-4{fill:#8cc295;}.cls-5{fill:#e39476;}.cls-6{fill:#37628f;}.cls-7{fill:#f5b49b;}.cls-8{fill:#fff;}.cls-9{fill:#1e244a;}.cls-10{fill:#2b1a0f;}.cls-11{fill:none;}.cls-12{fill:#ededed;}.cls-13{fill:#fffbf2;}.cls-14{fill:#ab684d;}.cls-15{fill:#2e5378;}.cls-16{fill:#a19086;}.cls-17{fill:#a84216;}</style></defs><g id="Layer_3" data-name="Layer 3"><path class="cls-1" d="M933.69,1670c-.63-19.89-1.28-39.79-2.18-59.69-1.81-40.23-4.62-80.47-10.27-120.37-9.46-66.8-34.35-126.24-51.76-190.73A742.22,742.22,0,0,1,853,1221.55c-7.72-48.76-10.79-97.79-10.38-147,.42-48.27,3.91-97,20.86-142.64,9.21-24.8,19.43-55.9,39.59-74.11,3.19-2.88,8.85-6,11.49-8.74,0,0,0,0,0-.07,1-.77,2-1.55,2.9-2.39.69-4.46,1.52-8.91,2.19-13.42.06-.34.1-.69.15-1-10.42-.84-21.92,6.69-31.08,10.66-21.83,9.5-44.24,17.61-66,27.32-10,4.47-20.17,9.15-30,13.9-9.55,4.65-17,12.46-26.64,17.13-10.72,5.22-21.46,10.39-32.36,15.26-8.24,3.7-16.51,7.35-24.72,11.12a228.36,228.36,0,0,0,22.72,45.17c-.29,1-.58,2-.9,3.06-8.09,25.73-23.87,47.95-34.64,72.49-2.64,6-4.86,12.17-7,18.28h0c4.93,2.68,5.13,8.7,6.81,13.89,13.9,43.07-8.89,67.95-15.15,108.25-5,32.26,7,61.44,5.71,92.95-.87,20.33-12.15,37.74-17.38,56.93a210.07,210.07,0,0,0-5.2,26.18c-11.68,84.09-30.6,167.75-47.06,251.17-4,20-7.37,41.57-12.52,62.68h0c5.31,64.52,6,130.52,5.5,195.73H933.31c1.42-29.14,2.48-58.31,2.57-87.49C936,1747.57,934.94,1709.14,933.69,1670Zm-71.4-112.91c-4.67-10.43,1.47-24.36,13.6-25.21,5.58-.39,9-.19,13.71,3.45,10,7.8,5.79,20.56-1.19,28.83S866,1565.33,862.29,1557.09Zm37.52,194.79c-6.93,8.21-22.44,1.17-26.12-7.07-4.67-10.44,1.47-24.36,13.58-25.21,5.59-.39,9.05-.19,13.72,3.45C911,1730.85,906.77,1743.61,899.81,1751.88Z"/><path class="cls-2" d="M691.43,402.17a5.38,5.38,0,0,1,.59,8.65c-3.21,2.61-6.89,3-10.79,2.47-5.38-.74-11-1.09-16.36-1.36-6.36-.31-12.75-.35-19.12-.56-4.62-.17-12.78.7-16.49-2.68-4.72-4.32-.69-8.53,4.28-9.56,4.53-.92,9.24,0,13.73.21,3.27.13,6.61.29,9.92.41,7.07.24,14.15.12,21.22.19C682.74,400,687.61,399.76,691.43,402.17Z"/><path class="cls-2" d="M647.22,299.64c6,.38,5.58,7,1.91,10-.51,2-3.67,2.57-5.29,3.78-2.42,1.81-15.67,12.07-17.73,14.27-1.85,2-4.06,3-6.26,4.54-2.88,2.06-12.45,9.36-15.52,3.69-.91-1.68-.28-3.88.62-5.38,2-3.31,5.71-5.7,9-7.47,3.12-1.65,6.63-3.91,8.85-6.68s15.57-12,18.14-14C642.74,300.9,644.84,299.47,647.22,299.64Z"/><path class="cls-2" d="M647.21,511.31a5.38,5.38,0,0,1-5.67,6.56c-4.12-.4-7-2.71-9.41-5.84-3.3-4.3-7-8.49-10.66-12.47-4.3-4.71-8.81-9.22-13.17-13.86-3.18-3.38-9.59-8.48-9.84-13.51-.33-6.39,5.51-6.54,9.76-3.77,3.87,2.51,6.55,6.51,9.61,9.8,2.24,2.41,4.5,4.86,6.76,7.28,4.86,5.14,10,10,14.94,15.07C642.58,503.64,646.18,506.93,647.21,511.31Z"/><path class="cls-2" d="M580.18,409.87c1.47,9.21-9.14,8.89-15.85,8.5a33.55,33.55,0,0,1,7.95-10.62C575.58,404.89,579.37,404.77,580.18,409.87Z"/><path class="cls-3" d="M563.52,532.12c0,.28-.95-.14-1.47-.32-1-.31-2-.69-3-1.08a40.28,40.28,0,0,0-6.22-2.18c-10.91-2.58-21.77-6.48-32.44-9.88h-.3c0-3,.15-6.15,0-9.16-.13-1.93-.85-4.12-.92-6.19h.16c0,1,19.63,7.71,21.47,8.27,7.14,2.14,14.41,3.55,21.09,6.94.85.43,2,1.54,2.82,1.25h.37a75.2,75.2,0,0,1-.95,12.46Z"/><path class="cls-3" d="M562.05,531.8c.52.18,1.47.6,1.47.32l.59.1c-.17,1.08-.39,2.15-.64,3.21-.79,3.23-1.28,6.39-2.92,9.31a25.9,25.9,0,0,1-1.52,2.37l-.11-.07c-2.89-1.16-5.83-2.83-8.88-3.83-9.5-3.11-19.1-7.28-28.3-11.19h-1a68,68,0,0,0-.31-8.32,40.16,40.16,0,0,1-.31-5.05h.3c10.67,3.4,21.53,7.3,32.44,9.88a40.28,40.28,0,0,1,6.22,2.18C560,531.11,561.07,531.49,562.05,531.8Z"/><path class="cls-2" d="M532.6,498.25h-.14c-.76-11-4.2-21.56-5.87-32.46-2.08-13.68-3.34-28.21-8.11-41.28a66.28,66.28,0,0,0-2.63-6.14l2.23-.13a29,29,0,0,0,7.82-2,22.25,22.25,0,0,0,7.24-4.81c2-1.81,4.51-3.51,6-5.78l.49-.78a29.52,29.52,0,0,0,14.64,11.37,28.7,28.7,0,0,0,7.81,2l2.23.13a59,59,0,0,0-2.62,6.14c-4.79,13.07-6,27.6-8.13,41.28-1.5,9.86-5,19.94-5.12,29.95,0,.92.14,1.86.15,2.78C543.25,498.56,537.87,498.4,532.6,498.25Z"/><path class="cls-3" d="M558.92,547l.11.07a23.79,23.79,0,0,1-4.42,4.72c-4.1,3.32-10.64,3.78-15.64,3.13a20.63,20.63,0,0,1-14.53-9.59,23.46,23.46,0,0,1-3.34-8.55,31.88,31.88,0,0,1-.36-4.79h1c9.2,3.91,18.8,8.08,28.3,11.19C553.09,544.21,556,545.88,558.92,547Z"/><path class="cls-2" d="M543.3,388.7c.12,5.5-.79,11.43-3.65,16.21a33.07,33.07,0,0,1-5.13-12.67c-.67-3.67-.67-10.41,3.22-12.56S543.27,386.63,543.3,388.7Z"/><path class="cls-2" d="M542.66,258.9c1.26,1.64-.24,4.47-.29,6.49-.06,3-.15,19.78.31,22.76.42,2.68-.16,5-.27,7.73-.16,3.54-.31,15.56-6.67,14.5-1.88-.31-3.23-2.17-3.85-3.8-1.39-3.61-1-8-.31-11.73.62-3.47,1-7.64.19-11.08-.77-3.29.18-19.66.13-22.94,0-2.27.13-4.8,1.72-6.58C537.64,249.75,542.56,254.18,542.66,258.9Z"/><path class="cls-4" d="M532.6,498.25c0,.14,0,.22-.12.36,0-.12,0-.24,0-.36Z"/><path class="cls-2" d="M522.13,498l-1.18.59-.29-.89a55.13,55.13,0,0,0-5.57-11.39c-5.78-8.86-15.44-13-23.31-19.41-18.95-15.53-30.72-40.05-32-64.68-2.05-39.83,28.34-77.48,69.19-78.4,17.84-.41,37.86,3.42,52.36,14.09A80.92,80.92,0,0,1,610,431.5a86.53,86.53,0,0,1-12.77,23.44c-5.84,7.64-14.51,12.28-20.48,19.55-5.42,6.58-13,13.22-13.74,22.27l-.1,1-.54.22c-4.52.4-9.12.55-13.76.58,0-.92-.15-1.86-.15-2.78.08-10,3.62-20.09,5.12-29.95,2.09-13.68,3.34-28.21,8.13-41.28a59,59,0,0,1,2.62-6.14c6.71.39,17.32.71,15.85-8.5-.81-5.1-4.6-5-7.9-2.12a33.55,33.55,0,0,0-7.95,10.62l-2.23-.13a28.7,28.7,0,0,1-7.81-2,29.52,29.52,0,0,1-14.64-11.37c2.86-4.78,3.77-10.71,3.65-16.21,0-2.07-1.61-11.18-5.56-9s-3.89,8.89-3.22,12.56a33.07,33.07,0,0,0,5.13,12.67l-.49.78c-1.51,2.27-4,4-6,5.78a22.25,22.25,0,0,1-7.24,4.81,29,29,0,0,1-7.82,2l-2.23.13a33.58,33.58,0,0,0-8-10.62c-3.3-2.86-7.08-3-7.9,2.12-1.46,9.21,9.14,8.89,15.86,8.5a66.28,66.28,0,0,1,2.63,6.14c4.77,13.07,6,27.6,8.11,41.28,1.67,10.9,5.11,21.5,5.87,32.46C529,498.15,525.5,498,522.13,498Z"/><path class="cls-3" d="M519.31,503.3h-.16a5.58,5.58,0,0,1,1.8-4.74l1.18-.59c3.37.06,6.83.17,10.33.27,0,.12,0,.24,0,.36.14-.14.08-.22.12-.36,5.27.15,10.65.31,16,.27,4.64,0,9.24-.18,13.76-.58l.54-.22c2.07,1.33,2.18,4.36,2.18,6.56,0,3-.17,6-.11,9,.06,2.16.09,4.34.08,6.5h-.37c-.84.29-2-.82-2.82-1.25-6.68-3.39-14-4.8-21.09-6.94C538.94,511,519.31,504.31,519.31,503.3Z"/><path class="cls-2" d="M507.89,407.75a33.58,33.58,0,0,1,8,10.62c-6.72.39-17.32.71-15.86-8.5C500.81,404.77,504.59,404.89,507.89,407.75Z"/><path class="cls-2" d="M465.28,468.42c4.26-2.77,10.09-2.62,9.77,3.77-.25,5-6.66,10.13-9.84,13.51-4.37,4.64-8.87,9.15-13.18,13.86-3.63,4-7.36,8.17-10.66,12.47-2.4,3.13-5.29,5.44-9.4,5.84a5.39,5.39,0,0,1-5.68-6.56c1-4.38,4.64-7.67,7.69-10.74,5-5,10.08-9.93,14.94-15.07,2.26-2.42,4.53-4.87,6.76-7.28C458.73,474.93,461.42,470.93,465.28,468.42Z"/><path class="cls-2" d="M456.3,334.52c3.5,3.67,4.4,9.44-1.92,10.29-5,.65-11.19-4.71-15.08-7.21-5.36-3.45-10.62-7.05-16-10.43-4.58-2.86-9.38-5.75-14.21-8.2-3.51-1.8-6.31-4.23-7.47-8.2A5.4,5.4,0,0,1,407,304c4.5.2,8.4,3.15,12,5.59,5.86,4,11.6,8.1,17.55,11.93,2.78,1.8,5.61,3.57,8.38,5.32C448.7,329.27,453.12,331.18,456.3,334.52Z"/><path class="cls-2" d="M440,399.13c5,1,9,5.24,4.28,9.56-3.71,3.38-11.86,2.51-16.48,2.68-6.37.21-12.76.25-19.13.56-5.39.27-11,.62-16.35,1.36-3.9.53-7.59.14-10.81-2.47a5.4,5.4,0,0,1,.6-8.65c3.82-2.41,8.7-2.19,13-2.23,7.07-.07,14.15.05,21.22-.19,3.31-.12,6.63-.28,9.92-.41C430.73,399.15,435.44,398.21,440,399.13Z"/><path class="cls-5" d="M1015.72,786.24l0-.65c29.2-1,63.3-18,88.4-37.48l.52.66c-1.06,8.44-.56,17.72-1.19,25.29-1.24,14.85-2,30.2-.88,45.16-17.35,1-34.13,5.5-52.08,4.06a219.45,219.45,0,0,1-60.18-14.08c-16.5-6.42-31.17-17.07-45.21-27.66C935.54,774.3,928,765.68,919.8,757c-1.46-1.54-3-3.58-4.63-5.66,9.53,5.35,19.24,10.43,29.11,15.6,12.1,6.34,25.05,10.54,38.26,14.14A144.41,144.41,0,0,0,1015.72,786.24Z"/><path class="cls-6" d="M889.6,1535.33c10,7.8,5.79,20.56-1.19,28.83s-22.44,1.17-26.12-7.07c-4.67-10.43,1.47-24.36,13.6-25.21C881.47,1531.49,884.92,1531.69,889.6,1535.33Z"/><path class="cls-1" d="M1397.06,1874.3H1132.48c.37-40.54.9-81.37-2.71-121.56-3-33.8-4.85-67.75-3.94-101.69.75-27.88-1.46-56.15-.52-84.23,1-31.42,7.8-62.66,9.09-94.21,1-23.53,5-46.29,10-69.29,5.71-26.39,5.35-53.58,12.56-79.9,7.3-26.58,15-53,20.3-80.23,4.8-24.76,7.75-49.73,12.82-74.37,11.51-55.85,11.79-112.36,2.67-168.62-2.66-16.42-3.8-32.76-7.87-49-8-31.76-22.45-62.72-47.25-84.79-9.17-8.16-21.73-12.11-30.68-19.7-.84-4.44-1.81-8.85-2.62-13.35q-.11-.51-.18-1c10.38-1.17,22.12,6,31.4,9.68,22.12,8.8,44.78,16.19,66.83,25.21,10.15,4.14,20.45,8.5,30.38,12.94,9.69,4.34,17.43,11.92,27.16,16.28,10.88,4.88,21.79,9.7,32.83,14.23,23.49,9.64,47.24,18.94,69.26,31.71,29.22,17,56.69,33.9,80,59,21.73,23.49,39,54.49,54.06,82.56,16.66,31.06,29.22,65.79,40.48,99.13,2.72,8.08,6.72,16.22,8.3,24.59,3,15.76,4,32.2,6.4,48.14q4.05,27,7.39,54.16c4.55,36.77,8.25,73.65,11.44,110.56,4.07,47.07,3.56,94.43,8.61,141.43,4.93,46,22.89,87.34,30.65,132.51,5,29.3-.83,58.69-2.74,88-1,15.78,4.77,31,4.58,46.73-.18,15.12-4.23,29.9-4.65,45.07Z"/><path class="cls-7" d="M539.64,1031.9c-1.58-7.47-2.55-15-4-22.61-1.48-8-3.29-16-5.1-24C523,952,517.32,921,527.82,887.6c9.43-30,25.78-57.42,32.94-88.14,4.91-21.06,3.74-42.22,3.06-63.69-.86-26.31.51-52.71.67-79,.11-18.42-2-45.19,16.22-56.37,5.18-3.17,8.33-3.23,13.86-.73,15.79,7.13,18.76,30.48,19.44,45.43,1.91,41.87.34,83.6.17,125.51,0,2.27.42,3.67.51,5.74a52.07,52.07,0,0,1,17,2.08c24.43,7.36,41,29.06,56,48.67,3.41-14.32,11.35-31.65,26.32-36.69,4.55-1.53,8.45-2.6,13-.94,6.88,2.53,13.2,6.8,16.48,13.53,7.08,14.47-.24,32.51-3.43,47.07-2.2,10.05-4.89,19.91-4.83,30.38,0,11.41,1.94,22.7,2.22,34.1.23,9.26.18,18.6-.51,27.88a148.12,148.12,0,0,1-6.06,33.33c-8.09,25.73-23.87,47.95-34.64,72.49-2.64,6-4.86,12.17-7,18.28-6.36,17.69-12.56,34.93-28.73,47.31-21.28,16.34-49.76,11-71.39-1.72a109.73,109.73,0,0,1-30.71-26.83c-4.71-6-6.31-10.24-7.66-17.48-1.76-9.47-6.35-18.52-9.05-27.75Q540.49,1036,539.64,1031.9Z"/><path class="cls-8" d="M1073.16,617.47c5,12.35-5.88,26.23-14,34.61-13.53,13.9-31.21,22-50.88,19.42-11.07-1.44-19.88-3.91-29.3-10.1-8.53-5.61-16.58-12.32-22.67-20.56-4.76-6.45-8.53-18.18-3.18-25.42,4.43-6,12.93-8.08,20-7.34,6.57.67,13.31.77,19.9,1.25a160.1,160.1,0,0,0,18.46-.09c8.06-.37,16.18,0,24.19-1,7.32-1,14.48-4,21.93-2.37C1064.48,607.34,1070.38,610.65,1073.16,617.47Z"/><path class="cls-9" d="M759.92,520.85c-1.13-8-2-16-3-23.89-1-8.67-1.76-17.57-4.45-26-5.4-16.92-15.86-31.65-21.61-48.43-2.7-7.88-4.24-15.05-4.13-23.42.14-9.1,1.34-18.13,2.13-27.19,1.3-15.15,4.47-30.08,8-44.85,4.67-19.44,11.67-39.54,9.57-59.73-.25-2.34-.55-4.67-.85-7-1.93-15.24,3.22-26.53,10.19-39.63,10.75-20.24,26.79-39,47.36-49.8,22.6-11.85,50.2-15.86,73.82-26.11a204.13,204.13,0,0,0,29.21-15.69c3.81-2.46,6.71-5.63,10.72-7.71,6.05-3.13,12.45-5.68,18.67-8.35A108.64,108.64,0,0,1,959,105.94a167.76,167.76,0,0,1,74.49,4c23.3,6.68,47.5,21,53.27,46.3,1.48,6.52,6.36,5.9,12.28,5.9,17.5-4,36.28,0,51.85,8.54,22.66,12.41,30.31,34,42.5,55,10.83,18.67,26,34.27,39.24,51.15,16.87,21.49,29.72,45.75,25.54,73.9-2,13.11-4,25.42-3.56,38.58.41,13.39-6,28.55-9.31,41.38-2.17,8.31-3,17.32-6.22,25.16-7.79,18.73-9.06,38.48-8.17,58.42.06,1.45.12,2.9.21,4.36a129.78,129.78,0,0,1-.44,16,41.5,41.5,0,0,1-2,11.14c-1.14,3.14-3.77,8-7.59,8.53-12.49,1.85-10.09-34.42-10.28-41.1-.63-22-4.53-46.69-17.22-65.35-6.59-9.68-10.63-21.93-13.33-33.31-3-12.61-3.79-24.49-3.78-37.35,0-20,1.47-40.22-9.25-58.42-9.8-16.63-29.93-24-48.3-25.36-4.41-.33-7.21-.05-11.52-.31-29.72-1.79-59,.26-86.63,11.87a68.2,68.2,0,0,1-27.67,5c-24.22-.44-47.13-10.12-70.59-15a121.31,121.31,0,0,0-34.18-2.2c-12.09.83-24.22,1.58-34.27,9.31-9.06,7-15.25,17-18.76,27.79a109.37,109.37,0,0,0-4.57,23c-1,9.77,1.84,19.07,1,28.74-1.4,16.86-4.5,33-12.66,48-2.12,3.9-3.57,8.07-5.35,12.11-1.62,3.66-4.06,6.35-6.24,9.67-4.78,7.27-10.08,14.33-13.4,22.44-7.55,18.51-2.79,38.79-2.52,58,.12,7.88,0,16.45-5.13,22.92-5.35,6.68-12.5,4.83-17.6-1.17-5.33-6.24-5.92-14.18-7.26-21.9C761,528,760.42,524.45,759.92,520.85Z"/><path class="cls-4" d="M1104.15,832.36q.07.51.18,1c-.35-.21-.69-.17-.8-.94C1103.73,832.4,1104,832.38,1104.15,832.36Z"/><path class="cls-10" d="M1113.38,492.79c1.36,7-.92,14.51-4.79,20.36-4.31,6.5-13.8,7.34-20.86,5.4-15.76-4.32-20.4-23-9.38-34.73,5.89-6.26,15.87-10.71,24.11-6.35C1107.53,480.15,1112.3,487.22,1113.38,492.79Z"/><path class="cls-6" d="M901,1723.05c10,7.8,5.78,20.56-1.18,28.83s-22.44,1.17-26.12-7.07c-4.67-10.44,1.47-24.36,13.58-25.21C892.86,1719.21,896.32,1719.41,901,1723.05Z"/><path class="cls-1" d="M696,1080.4c13.9,43.07-8.89,67.95-15.15,108.25-5,32.26,7,61.44,5.71,92.95-.87,20.33-12.15,37.74-17.38,56.93a210.07,210.07,0,0,0-5.2,26.18c-11.68,84.09-30.6,167.75-47.06,251.17-4,20-7.37,41.57-12.52,62.68-6.53,26.77-15.85,52.77-32.53,73.74-39.6,49.78-134.81,69.1-185.08,23.23-30-27.39-41.55-71-45.64-110-9.08-86.51,17-179.17,45.93-259.68,10.14-28.17,23.82-54.91,34.14-83a327.47,327.47,0,0,0,19-80.94c2-19.83,6.72-39.25,16.22-56.88,11.15-20.68,30.43-35.55,37.24-58.68,9.26-31.46,3.31-67.92,35.37-88.22,3.59-2.27,7.71-3.41,10.52-6.22q.86,4.08,2,8.13c2.7,9.23,7.29,18.28,9.05,27.75,1.35,7.24,2.95,11.47,7.66,17.48a109.73,109.73,0,0,0,30.71,26.83c21.63,12.69,50.11,18.06,71.39,1.72,16.17-12.38,22.37-29.62,28.73-47.31h0C694.16,1069.19,694.36,1075.21,696,1080.4Z"/><path class="cls-7" d="M914.33,834c0-.71,0-1.4,0-2.1a408.7,408.7,0,0,0,.06-42.44c-.42-7.07-1.1-14.12-2.15-21.11-.45-3-1.4-5.92-1.93-8.74-.48-2.64.25-6.71-1.59-8.89l1.31-2.26c1.68,1,3.38,1.94,5.09,2.91,1.63,2.08,3.17,4.12,4.63,5.66,8.2,8.65,15.74,17.27,25.32,24.51,14,10.59,28.71,21.24,45.21,27.66a219.45,219.45,0,0,0,60.18,14.08c18,1.44,34.73-3,52.08-4.06.18,2.59.42,5.16.74,7.71.22,1.83.5,3.63.82,5.43-.2,0-.42,0-.62.08.11.77.45.73.8.94.81,4.5,1.78,8.91,2.62,13.35a78.28,78.28,0,0,1,1.61,18.56,86.23,86.23,0,0,1-9.12,33.82c-10.38,20.85-28.53,38.13-50.31,46.6-4.29,1.67-8.54,3.59-12.89,5.11a66.84,66.84,0,0,1-25,3.36A126.87,126.87,0,0,1,986.08,950c-13.4-3.57-24.58-7.23-36-15.58-17.17-12.6-30.47-31-35.83-51.74a45.56,45.56,0,0,1-.65-22.32,57.32,57.32,0,0,0,1-11.29C914.59,844,914.24,839,914.33,834Z"/><path class="cls-9" d="M1132,413.86c3.35,5.45.25,11.31-5.77,12.2-5.62.84-11.11-1.61-16.29-3.41-2.36-.83-4.9-1.81-7.29-2.39-3-.73-5.89.2-8.88.11-8.62-.27-16.24,3.05-24.29,5.61-2.14.67-4.88.92-7-.32-7.37-4.24-1.6-11.45,2.84-15.4a28.85,28.85,0,0,1,9.75-5.94c5-1.89,10.73-4,16-4.76A53,53,0,0,1,1105,399C1114.38,400.06,1126.88,405.5,1132,413.86Z"/><path class="cls-9" d="M941.56,413.86c3.36,5.45.25,11.31-5.78,12.2-5.62.84-11.09-1.61-16.27-3.41-2.36-.83-4.9-1.81-7.3-2.39-3-.73-5.89.2-8.89.11-8.62-.27-16.23,3.05-24.29,5.61-2.12.67-4.86.92-7-.32-7.37-4.24-1.61-11.45,2.83-15.4a28.79,28.79,0,0,1,9.76-5.94c5-1.89,10.73-4,16-4.76a53,53,0,0,1,13.88-.53C923.89,400.06,936.41,405.5,941.56,413.86Z"/><path class="cls-10" d="M925.85,492.79c1.36,7-.92,14.51-4.8,20.36-4.31,6.5-13.8,7.34-20.86,5.4-15.75-4.32-20.39-23-9.38-34.73,5.9-6.26,15.87-10.71,24.11-6.35C920,480.15,924.77,487.22,925.85,492.79Z"/><path class="cls-7" d="M915.17,751.37c-1.71-1-3.41-1.93-5.09-2.91-9.76-5.6-19.33-11.56-28.72-18.2-18.49-13.09-38.29-28.06-51.94-46.36-8.08-10.82-16.44-21.19-24.89-31.77-7.52-9.42-12.38-20.64-19.66-30.22-7.74-10.2-16.46-11.82-27.22-17.91-11-6.22-21.24-14.71-28.6-25-2.88-4-5.9-7-7.92-11.55a98.51,98.51,0,0,1-5.69-15c-2.75-10.45-2.89-21.7,1.3-31.81a26.22,26.22,0,0,1,20.94-15.46c11.93-1.19,16,7.45,22.24,15.61.5,3.6,1.05,7.18,1.68,10.77,1.34,7.72,1.93,15.66,7.26,21.9,5.1,6,12.25,7.85,17.6,1.17,5.18-6.47,5.25-15,5.13-22.92-.27-19.26-5-39.54,2.52-58,3.32-8.11,8.62-15.17,13.4-22.44,2.18-3.32,4.62-6,6.24-9.67,1.78-4,3.23-8.21,5.35-12.11,8.16-15,11.26-31.15,12.66-48,.81-9.67-2-19-1-28.74a109.37,109.37,0,0,1,4.57-23C838.81,319,845,308.93,854.06,302c10.05-7.73,22.18-8.48,34.27-9.31a121.31,121.31,0,0,1,34.18,2.2c23.46,4.92,46.37,14.6,70.59,15a68.2,68.2,0,0,0,27.67-5c27.64-11.61,56.91-13.66,86.63-11.87,4.31.26,7.11,0,11.52.31,18.37,1.38,38.5,8.73,48.3,25.36,10.72,18.2,9.28,38.41,9.25,58.42,0,12.86.78,24.74,3.78,37.35,2.7,11.38,6.74,23.63,13.33,33.31,12.69,18.66,16.59,43.31,17.22,65.35.19,6.68-2.21,43,10.28,41.1,3.82-.57,6.45-5.39,7.59-8.53a41.5,41.5,0,0,0,2-11.14,129.78,129.78,0,0,0,.44-16c-.09-1.46-.15-2.91-.21-4.36l.59,0c10.58-15.84,33.4-7.65,39.69,7.49,4.33,10.43,4.17,22,1.34,32.83a102.34,102.34,0,0,1-5.88,15.43c-2.08,4.71-5.2,7.8-8.16,11.94-7.61,10.6-18.23,19.38-29.55,25.78-8.34,4.74-17.15,8.55-25.69,12.88l-.61-.27c-10.82,24.71-24.18,50.31-40.76,70.32-13,15.67-28.78,31.12-43.47,45.25a183,183,0,0,1-14.23,12.26c-25.1,19.53-59.2,36.52-88.4,37.48l0,.65a144.41,144.41,0,0,1-33.18-5.13c-13.21-3.6-26.16-7.8-38.26-14.14C934.41,761.8,924.7,756.72,915.17,751.37Zm211.1-325.31c6-.89,9.12-6.75,5.77-12.2-5.16-8.36-17.66-13.8-27.09-14.83a53,53,0,0,0-13.89.53c-5.26.8-11,2.87-16,4.76a28.85,28.85,0,0,0-9.75,5.94c-4.44,3.95-10.21,11.16-2.84,15.4,2.16,1.24,4.9,1,7,.32,8-2.56,15.67-5.88,24.29-5.61,3,.09,5.91-.84,8.88-.11,2.39.58,4.93,1.56,7.29,2.39C1115.16,424.45,1120.65,426.9,1126.27,426.06Zm-17.68,87.09c3.87-5.85,6.15-13.34,4.79-20.36-1.08-5.57-5.85-12.64-10.92-15.32-8.24-4.36-18.22.09-24.11,6.35-11,11.7-6.38,30.41,9.38,34.73C1094.79,520.49,1104.28,519.65,1108.59,513.15Zm-49.46,138.93c8.15-8.38,19-22.26,14-34.61-2.78-6.82-8.68-10.13-15.53-11.62-7.45-1.62-14.61,1.42-21.93,2.37-8,1-16.13.65-24.19,1a160.1,160.1,0,0,1-18.46.09c-6.59-.48-13.33-.58-19.9-1.25-7.12-.74-15.62,1.34-20,7.34-5.35,7.24-1.58,19,3.18,25.42,6.09,8.24,14.14,14.95,22.67,20.56,9.42,6.19,18.23,8.66,29.3,10.1C1027.92,674,1045.6,666,1059.13,652.08Zm-123.35-226c6-.89,9.14-6.75,5.78-12.2-5.15-8.36-17.67-13.8-27.1-14.83a53,53,0,0,0-13.88.53c-5.25.8-11,2.87-16,4.76a28.79,28.79,0,0,0-9.76,5.94c-4.44,3.95-10.2,11.16-2.83,15.4,2.16,1.24,4.9,1,7,.32,8.06-2.56,15.67-5.88,24.29-5.61,3,.09,5.93-.84,8.89-.11,2.4.58,4.94,1.56,7.3,2.39C924.69,424.45,930.16,426.9,935.78,426.06Zm-14.73,87.09c3.88-5.85,6.16-13.34,4.8-20.36-1.08-5.57-5.86-12.64-10.93-15.32-8.24-4.36-18.21.09-24.11,6.35-11,11.7-6.37,30.41,9.38,34.73C907.25,520.49,916.74,519.65,921.05,513.15Z"/><path class="cls-8" d="M509,360.93c-5.15,2.17-10.72,6.3-11.7,10.81-.54,2.44.21,5-.43,7.45-1.08,4-5.44,6-8.56,8.8a17.87,17.87,0,0,0-4.7,19.24c2,5.24,6.52,9.54,7.11,15.12.5,4.73-1.77,10.3,1.43,13.82,2.71,3,7.52,2.3,11.3,3.7,4.86,1.79,7.77,7,12.5,9.1,6.84,3.11,14.64-1.06,22.15-1.39,4.55-.21,9,1,13.55,1.57s9.46.3,13.09-2.46c4-3,5.42-8.27,8.38-12.29s7.18-6.61,11-9.73,7.3-7.19,7.67-12.08c.5-6.64-4.84-12.18-6.74-18.56-1.25-4.17-1-8.63-1.46-13-.44-4.06-1.78-9.4-6-11-2.3-.87-4.82-.91-7.19-1.51-7.53-1.93-12.56-9.16-19.73-12.15-4.61-1.93-9.84-2-14.74-1-4.61.91-9.29,3.91-14,4S513.41,359,509,360.93Z"/><path class="cls-11" d="M1182.66,1270.51c-2,36.27-34.38,62.52-50.46,95.09-14,28.46-15.27,61.3-16.22,93"/><path class="cls-12" d="M967,1808.41c-3.54-10.63-3.29-21.39-5.17-32.47-4.52-26.64-7.5-53.52-9.88-80.42-1.13-12.85-.44-27.19-3.31-39.74-2.28-10-3-19.41-3.55-29.72a656.53,656.53,0,0,0-25.42-146.47c.57,3.43,1.12,6.88,1.61,10.35,5.43,38.32,8.23,77,10,115.6.07,1.59.15,3.18.22,4.77.9,19.9,1.55,39.8,2.18,59.69,1.25,39.14,2.33,77.57,2.19,116.81-.09,29.18-1.15,58.35-2.57,87.49h42.6c-.66-8.77-1.85-17.55-3.06-26.22C971.08,1835.38,971,1820.57,967,1808.41Z"/><path class="cls-13" d="M1192.75,1000.2c-2.66-16.42-3.8-32.76-7.87-49-8-31.76-22.45-62.72-47.25-84.79-9.17-8.16-21.73-12.11-30.68-19.7a78.28,78.28,0,0,1,1.61,18.56,86.23,86.23,0,0,1-9.12,33.82c-10.38,20.85-28.53,38.13-50.31,46.6-4.29,1.67-8.54,3.59-12.89,5.11a66.84,66.84,0,0,1-25,3.36A126.87,126.87,0,0,1,986.08,950c-13.4-3.57-24.58-7.23-36-15.58-17.17-12.6-30.47-31-35.83-51.74a45.56,45.56,0,0,1-.65-22.32,57.32,57.32,0,0,0,1-11.29c-2.64,2.69-8.3,5.86-11.49,8.74-20.16,18.21-30.38,49.31-39.59,74.11-17,45.63-20.44,94.37-20.86,142.64-.41,49.25,2.66,98.28,10.38,147a742.22,742.22,0,0,0,16.45,77.66C886,1360.35,909.2,1417,919.63,1479.59a656.53,656.53,0,0,1,25.42,146.47c.6,10.31,1.27,19.77,3.55,29.72,2.87,12.55,2.18,26.89,3.31,39.74,2.38,26.9,5.36,53.78,9.88,80.42,1.88,11.08,1.63,21.84,5.17,32.47,4.06,12.16,4.12,27,5.89,39.67,1.21,8.67,2.4,17.45,3.06,26.22h156.57c.37-40.54.9-81.37-2.71-121.56-3-33.8-4.85-67.75-3.94-101.69.75-27.88-1.46-56.15-.52-84.23,1-31.42,7.8-62.66,9.09-94.21,1-23.53,5-46.29,10-69.29,5.71-26.39,5.35-53.58,12.56-79.9,7.3-26.58,15-53,20.3-80.23,4.8-24.76,7.75-49.73,12.82-74.37C1201.59,1113,1201.87,1056.46,1192.75,1000.2Z"/></g><g id="Layer_2" data-name="Layer 2"><path d="M1039.15,281.67a2.81,2.81,0,0,1-2-4.78c20.45-20.72,29.86-48,36.38-71.87a2.81,2.81,0,1,1,5.42,1.47c-12,43.87-25.81,62.2-37.8,74.35A2.78,2.78,0,0,1,1039.15,281.67Z"/><path d="M1084.3,282.75a2.81,2.81,0,0,1-.93-5.46,120.15,120.15,0,0,0,39.84-23.09,2.81,2.81,0,0,1,3.71,4.23,126.15,126.15,0,0,1-41.69,24.17A3.06,3.06,0,0,1,1084.3,282.75Z"/><path d="M955.32,255.53a2.81,2.81,0,0,1-2.74-2.22c-6.32-29.25-22.72-51.38-45-60.71a2.81,2.81,0,0,1,2.18-5.19c24,10.06,41.61,33.65,48.32,64.72a2.82,2.82,0,0,1-2.15,3.34A3.05,3.05,0,0,1,955.32,255.53Z"/><path d="M860.72,254.2a2.8,2.8,0,0,1-1.36-.36c-17-9.43-33.23-13.14-48.36-11a2.81,2.81,0,0,1-.78-5.57c16.37-2.3,33.82,1.63,51.87,11.67a2.81,2.81,0,0,1-1.37,5.27Z"/><path class="cls-14" d="M1016.62,571.29a23.37,23.37,0,0,1-9.34-2.13A42.3,42.3,0,0,1,994.39,561a2.81,2.81,0,0,1,3.91-4,36.85,36.85,0,0,0,11.23,7,16.19,16.19,0,0,0,9,1.52,23.64,23.64,0,0,0,6.14-1.91c2.67-1.23,10.75-5,5.44-22.42-1.76-5.76-3.83-11.55-5.83-17.14-1.83-5.11-3.72-10.4-5.38-15.69a40.88,40.88,0,0,1-1.47-8.92c-.12-1.38-.23-2.69-.42-4-1.44-10.24-.54-20.8.64-30.69a2.81,2.81,0,1,1,5.58.67c-1.14,9.51-2,19.63-.65,29.24.2,1.47.33,2.91.45,4.3a35.36,35.36,0,0,0,1.23,7.72c1.63,5.19,3.5,10.42,5.31,15.48,2,5.66,4.12,11.51,5.92,17.4,5.57,18.3-1.53,26-8.46,29.16a29.28,29.28,0,0,1-7.62,2.36A18.16,18.16,0,0,1,1016.62,571.29Z"/><path class="cls-14" d="M768.42,588.46a2.82,2.82,0,0,1-2.52-1.55c-1.45-2.9-4.21-4.77-7.14-6.75-3.39-2.29-7.24-4.89-9.06-9.45s-.58-8.86.55-12.52a29.94,29.94,0,0,0,1.18-4.6,9.27,9.27,0,0,0-.89-4.55c-.3-.82-.61-1.66-.87-2.6-.82-3-1.56-4.8-3.3-6.23-4.48-3.67-8.48-5.48-11.26-5.1a5.48,5.48,0,0,0-3.78,2.55,2.81,2.81,0,0,1-4.59-3.24,10.9,10.9,0,0,1,7.61-4.88c4.48-.6,9.72,1.52,15.58,6.33,3.18,2.6,4.3,5.92,5.16,9.08.2.72.45,1.42.73,2.17a14.16,14.16,0,0,1,1.17,7.29,34.34,34.34,0,0,1-1.37,5.44c-1,3.31-1.84,5.92-.7,8.78s3.87,4.77,7,6.88,6.91,4.67,9,8.88a2.82,2.82,0,0,1-2.51,4.07Z"/><path class="cls-14" d="M1222.46,591.8a2.68,2.68,0,0,1-1.25-.3,2.81,2.81,0,0,1-1.26-3.77c2.17-4.32,6-6.88,9.28-9.13s6-4.07,7.25-7.14.3-5.83-.72-9.12a36.82,36.82,0,0,1-1.42-5.61,14.67,14.67,0,0,1,1.21-7.48c.28-.77.55-1.5.75-2.24.89-3.26,2-6.66,5.3-9.34,6-4.94,11.42-7.14,16-6.51a11.2,11.2,0,0,1,7.79,5,2.81,2.81,0,0,1-4.59,3.24,5.73,5.73,0,0,0-4-2.67c-2.9-.39-7.06,1.48-11.7,5.29-1.82,1.49-2.58,3.35-3.44,6.47-.26,1-.58,1.84-.89,2.68-.64,1.78-1.15,3.18-.93,4.74a31.74,31.74,0,0,0,1.22,4.76c1.17,3.77,2.5,8,.58,12.87s-5.66,7.24-9.32,9.72c-3,2-5.89,4-7.4,7A2.83,2.83,0,0,1,1222.46,591.8Z"/><path class="cls-14" d="M678.33,918.17a4.52,4.52,0,0,1-1.56-.29.84.84,0,0,0-.33-.08,2.81,2.81,0,0,1,.44-5.6,6,6,0,0,1,1.55.31,2.84,2.84,0,0,1,.82-.06c7.46.55,14-8.75,16.3-14.72,3.9-9.94,5-21.44,3.24-34.2-1.48-10.79-3.41-22-9.28-29.54l-3.32-4.32a2.81,2.81,0,0,1,4.47-3.42q1.65,2.18,3.3,4.3c6.71,8.68,8.82,20.68,10.4,32.22,1.88,13.72.67,26.17-3.58,37A36.46,36.46,0,0,1,692.83,912c-4.23,4.2-8.91,6.3-13.55,6.12A5.7,5.7,0,0,1,678.33,918.17Z"/><path class="cls-14" d="M581,791a2.81,2.81,0,0,1-1.69-5,63.63,63.63,0,0,1,32.42-12.3,2.81,2.81,0,1,1,.48,5.6,58,58,0,0,0-29.52,11.19A2.81,2.81,0,0,1,581,791Z"/><path class="cls-14" d="M638.16,960.87c-3.81,0-7.38-1-9.94-3.76a7.28,7.28,0,0,0-1.32-.71c-1.52-.7-4.07-1.88-4.32-4.82a2.81,2.81,0,0,1,5.54-.85,12.1,12.1,0,0,0,1.14.57,9.29,9.29,0,0,1,3.07,2c4.21,4.51,16.1.41,21.29-3,14.5-9.68,25-33.71,15.83-59.17-1.09-3-3.23-6-5.3-9-.81-1.14-1.64-2.31-2.41-3.49-12.22-18.6-24.28-29.28-35.86-31.75-12.44-2.64-26.33-.54-33.5.95a2.81,2.81,0,1,1-1.15-5.5c7.61-1.58,22.38-3.8,35.82-.94,13.26,2.82,26.15,14,39.38,34.16.72,1.08,1.49,2.17,2.3,3.32,2.29,3.21,4.65,6.54,6,10.31,7.55,21,3.81,51.19-18,65.75C652.92,957.45,645.14,960.87,638.16,960.87Z"/><path class="cls-14" d="M600.4,990.71a16.85,16.85,0,0,1-13.48-7,24.79,24.79,0,0,1-5.07-12.53,31.56,31.56,0,0,1,.19-5.25c.24-2.65.47-5.16-.44-7.11-2.27-4.89-6.45-8.27-10.88-11.85l-1.47-1.19a2.81,2.81,0,0,1,3.56-4.36l1.44,1.18c4.74,3.82,9.63,7.78,12.45,13.86,1.54,3.32,1.22,6.85.93,10a27.32,27.32,0,0,0-.17,4.34,19.1,19.1,0,0,0,3.92,9.52c4.16,5.43,10.42,6.34,16.35,2.39,10.31-6.87,14.47-21.26,14.92-32.43A55,55,0,0,0,620,931.91c-2.07-6.72-7.58-12.31-12.91-17.71l-1.28-1.3a56.78,56.78,0,0,0-20.54-13.76,2.81,2.81,0,0,1,2-5.26A62.15,62.15,0,0,1,609.86,909l1.27,1.29c5.54,5.61,11.81,12,14.28,20a60.67,60.67,0,0,1,2.86,20.21c-.66,16.26-7.18,30-17.43,36.88A18.78,18.78,0,0,1,600.4,990.71Z"/><path class="cls-14" d="M634.15,996.46a3,3,0,0,1-.82-.12,2.81,2.81,0,0,1-1.87-3.5c4.12-13.57,9-23.7,15.85-32.85,1.23-1.63,2.33-3.14,3.42-4.62,1.59-2.17,3.1-4.22,4.89-6.56a2.81,2.81,0,1,1,4.46,3.41c-1.75,2.3-3.24,4.33-4.82,6.47-1.1,1.5-2.21,3-3.45,4.67-6.44,8.6-11,18.19-15,31.11A2.81,2.81,0,0,1,634.15,996.46Z"/><path class="cls-15" d="M605,1679.25a2.94,2.94,0,0,1-.65-.07,2.81,2.81,0,0,1-2.08-3.39c3.29-13.82,5.89-27.87,8.4-41.46,1.21-6.58,2.36-12.79,3.59-19,4.07-20.64,8.36-41.65,12.52-62,12.64-61.87,25.72-125.84,34.51-189a212,212,0,0,1,5.27-26.53,191.33,191.33,0,0,1,7.54-21.07c4.74-11.77,9.21-22.9,9.74-35.24.57-13.57-1.44-27.06-3.39-40.1-2.54-17-5.17-34.65-2.3-53.16,2.15-13.8,6.16-25.69,10-37.2,7.61-22.57,14.17-42.07,5.23-69.75-.42-1.3-.74-2.62-1.06-3.89-.92-3.72-1.72-6.94-4.42-8.41a2.81,2.81,0,1,1,2.68-4.93c4.88,2.65,6.11,7.61,7.2,12,.3,1.23.59,2.4,1,3.51,9.51,29.45,2.34,50.74-5.25,73.28-3.8,11.28-7.73,22.94-9.8,36.26-2.75,17.67-.18,34.85,2.3,51.47,2,13.31,4,27.06,3.44,41.17-.56,13.31-5.43,25.4-10.14,37.1a187.79,187.79,0,0,0-7.32,20.45,204,204,0,0,0-5.14,25.83c-8.81,63.38-21.9,127.44-34.57,189.4-4.15,20.3-8.44,41.3-12.51,61.92-1.22,6.17-2.36,12.37-3.58,18.93-2.52,13.66-5.13,27.79-8.45,41.74A2.82,2.82,0,0,1,605,1679.25Z"/><path class="cls-15" d="M599.89,1255.57a2.81,2.81,0,0,1-2-.83c-23.92-24-45.23-50.51-69.89-82.94a2.81,2.81,0,1,1,4.48-3.4c24.51,32.25,45.7,58.6,69.39,82.37a2.82,2.82,0,0,1-2,4.8Z"/><path class="cls-15" d="M554.42,1319.2c-13.21,0-27.23-2.48-42.82-7.51a2.81,2.81,0,1,1,1.72-5.35c23.77,7.67,43.63,9.2,62.49,4.81a2.81,2.81,0,0,1,1.28,5.48A99.74,99.74,0,0,1,554.42,1319.2Z"/><path class="cls-15" d="M1397.06,1878.13h0a2.81,2.81,0,0,1-2.79-2.83c.18-19.31-1.52-39.24-3.16-58.51-1.43-16.74-2.9-34-3.14-50.86-.44-31-2-62.45-3.52-92.9-.54-11-1.11-22.31-1.61-33.47-3-66-7.49-128.83-13.79-192-6.64-66.58-12.27-131.71-8.24-196.54,2.91-46.92,13.25-97,31.59-153.09a2.81,2.81,0,0,1,5.34,1.75c-18.19,55.64-28.44,105.25-31.32,151.68-4,64.42,1.6,129.3,8.22,195.64,6.31,63.27,10.83,126.17,13.81,192.31.51,11.14,1.07,22.48,1.62,33.44,1.51,30.5,3.08,62,3.52,93.1.24,16.61,1.7,33.82,3.12,50.46,1.65,19.41,3.36,39.47,3.18,59A2.81,2.81,0,0,1,1397.06,1878.13Z"/><path class="cls-15" d="M1482.86,1769.58a2.81,2.81,0,0,1-1.81-5c29.77-25.08,50.62-50.12,62-74.41a2.81,2.81,0,1,1,5.09,2.38c-11.71,25-33.06,50.72-63.46,76.33A2.77,2.77,0,0,1,1482.86,1769.58Z"/><path class="cls-16" d="M558.91,550.2a3.1,3.1,0,0,1-1.18-.23c-1.24-.5-2.47-1.07-3.66-1.63a44.42,44.42,0,0,0-5-2.13c-8.79-2.88-17.59-6.62-26.1-10.23l-2.46-1.05a3.16,3.16,0,0,1,2.46-5.82l2.47,1c8.39,3.56,17.06,7.25,25.6,10.05a50.72,50.72,0,0,1,5.73,2.41c1.16.54,2.26,1.06,3.33,1.49a3.16,3.16,0,0,1-1.18,6.09Z"/><path class="cls-16" d="M563.43,535.37a6.17,6.17,0,0,1-2.11-.47l-.26-.09c-1.23-.41-2.26-.79-3.18-1.16l-.71-.29a31.1,31.1,0,0,0-5-1.75c-8.35-2-16.69-4.71-24.76-7.37-2.65-.87-5.29-1.74-7.91-2.58a3.16,3.16,0,0,1,1.92-6c2.64.84,5.3,1.72,8,2.6,7.95,2.61,16.16,5.32,24.24,7.22a36.85,36.85,0,0,1,6,2l.7.29c.78.32,1.7.65,2.79,1l.27.1a3.15,3.15,0,0,1,3.16,2.12,3.22,3.22,0,0,1-.78,3.41A3.13,3.13,0,0,1,563.43,535.37Zm-2.91-2.27Z"/><path class="cls-16" d="M564.4,523a6.44,6.44,0,0,1-3.5-1.34c-.16-.11-.31-.22-.45-.3-4.6-2.32-9.51-3.66-14.71-5.07-1.92-.53-3.91-1.07-5.88-1.66-1.38-.42-14.16-4.75-19.59-7.12a3.16,3.16,0,1,1,2.53-5.79c5.11,2.23,17.61,6.47,18.89,6.86,1.88.57,3.83,1.1,5.71,1.61,5.28,1.43,10.74,2.92,15.91,5.54a9,9,0,0,1,1.12.69l.33.21a3.16,3.16,0,0,1,1,6.15A4,4,0,0,1,564.4,523Z"/><path class="cls-17" d="M548.47,502.12h0a3.15,3.15,0,0,1-3.13-3.18c0-6.7,1.54-13.33,3-19.75.83-3.68,1.61-7.16,2.15-10.64.42-2.79.81-5.61,1.21-8.45,1.54-11.17,3.14-22.73,7.07-33.44.29-.79.58-1.56.88-2.31a42.2,42.2,0,0,1-6.38-1.85,32.52,32.52,0,0,1-13.65-9.22c-.91.89-1.87,1.69-2.77,2.44-.53.44-1.07.89-1.57,1.34a25.57,25.57,0,0,1-8.31,5.44,42,42,0,0,1-6.39,1.85c.3.75.6,1.52.89,2.31,3.92,10.71,5.52,22.27,7.07,33.44.39,2.84.78,5.66,1.21,8.45.65,4.25,1.6,8.58,2.52,12.77a156.37,156.37,0,0,1,3.13,17.26,3.16,3.16,0,1,1-6.28.67,153.56,153.56,0,0,0-3-16.57c-.94-4.29-1.92-8.72-2.6-13.18-.43-2.81-.83-5.67-1.22-8.53-1.5-10.85-3.06-22.06-6.75-32.14-.51-1.4-1-2.72-1.6-4-5.17.2-11.49-.07-14.93-3.87-1.33-1.47-2.78-4.12-2.1-8.39s3.14-5.87,4.53-6.38c2.6-1,5.72-.09,8.56,2.35a35,35,0,0,1,7.74,9.75h.22a27.09,27.09,0,0,0,6.92-1.79,19.64,19.64,0,0,0,6.2-4.19c.56-.5,1.15-1,1.75-1.49a26,26,0,0,0,3-2.78,36.72,36.72,0,0,1-4.42-12c-1-5.54-.37-13,4.81-15.89a5.25,5.25,0,0,1,5.27,0c4.52,2.61,5,11.65,5,11.74a35.48,35.48,0,0,1-3.1,16,26.18,26.18,0,0,0,12,8.62,27.2,27.2,0,0,0,6.92,1.79h.22a35,35,0,0,1,7.74-9.74c2.84-2.45,6-3.31,8.57-2.36,1.39.51,3.82,2,4.52,6.38s-.76,6.92-2.09,8.39c-3.45,3.8-9.77,4.07-14.93,3.87-.56,1.24-1.09,2.56-1.61,4-3.69,10.08-5.24,21.29-6.74,32.14-.4,2.86-.79,5.72-1.22,8.53-.57,3.71-1.42,7.46-2.24,11.09-1.38,6.09-2.8,12.38-2.84,18.4A3.18,3.18,0,0,1,548.47,502.12Zm28.07-90a4.84,4.84,0,0,0-2.2,1.24,26.77,26.77,0,0,0-4.6,5.2c2.84-.08,5.6-.51,6.78-1.82.22-.24.89-1,.54-3.14a2.92,2.92,0,0,0-.51-1.48Zm-73,0a4.2,4.2,0,0,0-.45,1.44c-.34,2.17.32,2.9.54,3.14,1.19,1.31,3.94,1.74,6.78,1.82a26.77,26.77,0,0,0-4.6-5.2A4.1,4.1,0,0,0,503.56,412.16Zm35.13-26c-1.34,1.56-1.66,5.51-1.07,8.73a31,31,0,0,0,1.65,5.8,34.26,34.26,0,0,0,.88-8.7A17.36,17.36,0,0,0,538.69,386.16Z"/><path class="cls-15" d="M880.75,1496.3a2.8,2.8,0,0,1-2.78-2.4c-4.35-29.54-12.94-57.78-20.76-81.51-2.71-8.22-6-16.67-9.15-24.85-6.82-17.62-13.87-35.84-16.53-54.4a2.81,2.81,0,1,1,5.56-.8c2.57,17.92,9.5,35.84,16.21,53.17,3.19,8.24,6.49,16.77,9.25,25.12,7.9,24,16.57,52.49,21,82.45a2.81,2.81,0,0,1-2.37,3.19Z"/><path class="cls-15" d="M1408.28,1079.24a2.78,2.78,0,0,1-1.06-.21,2.81,2.81,0,0,1-1.54-3.67c4.56-11.17,11-21.37,17.3-31.22,4.24-6.68,8.63-13.58,12.29-20.6a2.81,2.81,0,1,1,5,2.59c-3.77,7.24-8.22,14.25-12.52,21-6.14,9.65-12.48,19.63-16.85,30.34A2.82,2.82,0,0,1,1408.28,1079.24Z"/></g></svg>