<svg id="Layer_1" data-name="Layer 1" xmlns="http://www.w3.org/2000/svg" viewBox="0 0 122.88 122.88"><defs><style>.cls-1{fill:#04b2f9;}.cls-2{fill:#060d17;}.cls-3{fill:#fafdfe;}</style></defs><path class="cls-1" d="M61.51,120.42a59.45,59.45,0,1,1,59.8-59.18A59.15,59.15,0,0,1,61.51,120.42ZM113.69,61.1C113.75,30.34,91.5,9.29,56.36,9.76c-24.2.32-46.23,23.18-46.27,50.91a51.8,51.8,0,1,0,103.6.43Z"/><path class="cls-2" d="M113.69,61.1a51.8,51.8,0,1,1-103.6-.43c0-27.73,22.07-50.59,46.27-50.91C91.5,9.29,113.75,30.34,113.69,61.1ZM77.54,73.68a48.2,48.2,0,0,1-24.4,21.77c-3.43,1.44-2.14,4.08-2.36,6.38-.25,2.66,2,2.52,3.56,2.76a44.53,44.53,0,0,0,11.82.45c6.86-.75,6.88-.68,6.89-7.45,0-2.68-.08-5,3-6.64,8.68-4.52,8.62-4.76,3.81-13.55C79.28,76.3,78.55,75.27,77.54,73.68ZM46.06,48c2.23-3,4-5.83,6.17-8.34A45.45,45.45,0,0,1,70.15,26.75c3.58-1.43,2.86-4,2.89-6.56,0-3.19-2.63-2.67-4.45-3a40.17,40.17,0,0,0-11.33-.3c-6.5.79-6.46.71-6.54,7.35,0,2.51.78,5-2.76,6.64-8.62,4-8.72,5-4.14,13.43C44.42,45.45,45.13,46.49,46.06,48ZM43.33,68.39c-6.45-10.1-8.19-20.58-6.95-31.46.46-4.07-2.18-4.78-4.51-6.09-2.81-1.57-3.42,1.4-4.62,2.7a33,33,0,0,0-5.32,8.36c-3.24,6.88-3.22,6.84,3.23,10.66,1.87,1.11,4.08,1.6,3.79,5-.88,10.2-.34,10.54,10,10.78C40.06,68.42,41.16,68.39,43.33,68.39ZM80.55,53.53a47.51,47.51,0,0,1,6.9,31.31c-.43,3.91,1.91,4.88,4.38,6.22,2.86,1.55,3.51-1.28,4.7-2.61a35,35,0,0,0,5.72-9.24C105,73,105,73.08,99.06,69.58c-2-1.2-4.34-1.73-4.18-5.35.47-10.23,1.93-9.61-10.16-10.68C83.64,53.45,82.54,53.53,80.55,53.53ZM65.21,40.78c13.94,1.14,20.69,3,29.72,9.79,3.31,2.47,5.34,1.16,7.88-.39,3-1.84.75-4,0-5.71a48.13,48.13,0,0,0-4.36-8.36c-4.32-6.6-4.39-6.51-11.15-2.71-1.76,1-3.12,2.64-5.83.9-9.24-6-7.73-6.82-14.78,3.54A29.84,29.84,0,0,0,65.21,40.78ZM25.68,69.47c-3.77,0-6.45,3.81-5.25,7a43.81,43.81,0,0,0,5.29,10c4.1,5.77,4.08,5.75,10.23,2.25,2.24-1.27,3.95-2.72,7.12-.62,8.42,5.57,7.21,5.54,13.27-2.88.37-.51.64-1.09,1-1.62,1.15-1.77,1.19-2.76-1.43-2.81-10.48-.17-19.68-4-28.1-10C27,70.25,26.21,69.81,25.68,69.47Zm36,.11a8.61,8.61,0,1,0-8.41-9A8.59,8.59,0,0,0,61.71,69.58Z"/><path class="cls-3" d="M77.54,73.68c1,1.59,1.74,2.62,2.34,3.72,4.81,8.79,4.87,9-3.81,13.55-3.1,1.62-3,4-3,6.64,0,6.77,0,6.7-6.89,7.45a44.53,44.53,0,0,1-11.82-.45c-1.57-.24-3.81-.1-3.56-2.76.22-2.3-1.07-4.94,2.36-6.38A48.2,48.2,0,0,0,77.54,73.68Z"/><path class="cls-1" d="M46.06,48c-.93-1.49-1.64-2.53-2.24-3.63C39.24,35.9,39.34,34.91,48,30.92c3.54-1.64,2.73-4.13,2.76-6.64.08-6.64,0-6.56,6.54-7.35a40.17,40.17,0,0,1,11.33.3c1.82.29,4.48-.23,4.45,3,0,2.57.69,5.13-2.89,6.56A45.45,45.45,0,0,0,52.23,39.64C50.1,42.15,48.29,44.94,46.06,48Z"/><path class="cls-3" d="M43.33,68.39c-2.17,0-3.27,0-4.38,0-10.34-.24-10.88-.58-10-10.78.29-3.45-1.92-3.94-3.79-5-6.45-3.82-6.47-3.78-3.23-10.66a33,33,0,0,1,5.32-8.36c1.2-1.3,1.81-4.27,4.62-2.7,2.33,1.31,5,2,4.51,6.09C35.14,47.81,36.88,58.29,43.33,68.39Z"/><path class="cls-1" d="M80.55,53.53c2,0,3.09-.08,4.17,0,12.09,1.07,10.63.45,10.16,10.68-.16,3.62,2.15,4.15,4.18,5.35,6,3.5,6,3.46,3.19,9.63a35,35,0,0,1-5.72,9.24c-1.19,1.33-1.84,4.16-4.7,2.61-2.47-1.34-4.81-2.31-4.38-6.22A47.51,47.51,0,0,0,80.55,53.53Z"/><path class="cls-3" d="M65.21,40.78a29.84,29.84,0,0,1,1.53-2.94c7.05-10.36,5.54-9.5,14.78-3.54,2.71,1.74,4.07.09,5.83-.9,6.76-3.8,6.83-3.89,11.15,2.71a48.13,48.13,0,0,1,4.36,8.36c.7,1.75,3,3.87,0,5.71-2.54,1.55-4.57,2.86-7.88.39C85.9,43.83,79.15,41.92,65.21,40.78Z"/><path class="cls-1" d="M25.68,69.47c.53.34,1.35.78,2.11,1.32,8.42,6,17.62,9.87,28.1,10,2.62,0,2.58,1,1.43,2.81-.34.53-.61,1.11-1,1.62-6.06,8.42-4.85,8.45-13.27,2.88-3.17-2.1-4.88-.65-7.12.62-6.15,3.5-6.13,3.52-10.23-2.25a43.81,43.81,0,0,1-5.29-10C19.23,73.28,21.91,69.5,25.68,69.47Z"/><path class="cls-3" d="M61.71,69.58A8.61,8.61,0,1,1,70.5,61.4,8.6,8.6,0,0,1,61.71,69.58Z"/></svg>