<?xml version="1.0" encoding="utf-8"?>
<!-- Generator: Adobe Illustrator 26.0.3, SVG Export Plug-In . SVG Version: 6.00 Build 0)  -->
<svg version="1.1" id="Capa_1" xmlns="http://www.w3.org/2000/svg" xmlns:xlink="http://www.w3.org/1999/xlink" x="0px" y="0px"
	 viewBox="0 0 800 800" style="enable-background:new 0 0 800 800;" xml:space="preserve">
<style type="text/css">
	.st0{fill:#7DE7EB;}
</style>
<g>
	<path class="st0" d="M800,342.6v-61h-80v-42.1L400,17.2L80,239.5v42.1H0v61h107.2v292.7H25L0,782.8h800l-25-147.5h-82.1V342.6H800z
		 M400,107.7c28.2,0,51.1,22.9,51.1,51.2c0,28.2-22.9,51.1-51.1,51.1c-28.3,0-51.2-22.9-51.2-51.1
		C348.8,130.6,371.8,107.7,400,107.7z M271.1,635.2h-70.3V342.6h70.3V635.2z M435.1,635.2h-70.3V342.6h70.3V635.2z M599.2,635.2
		h-70.3V342.6h70.3V635.2z"/>
</g>
</svg>
